<?xml version="1.0" encoding="UTF-8" standalone="no"?>
<svg width="674px" height="102px" viewBox="0 0 674 102" version="1.1" xmlns="http://www.w3.org/2000/svg" xmlns:xlink="http://www.w3.org/1999/xlink">
    <!-- Generator: Sketch 39.1 (31720) - http://www.bohemiancoding.com/sketch -->
    <title>logo</title>
    <desc>Created with Sketch.</desc>
    <defs></defs>
    <g id="Page-1" stroke="none" stroke-width="1" fill="none" fill-rule="evenodd">
        <g id="logo" transform="translate(-1.000000, 0.000000)">
            <path d="M49.455,93.248 C47.234,91.026 48.405,88.183 49.437,87.151 L76.974,59.614 C77.562,59.025 80.37,56.327 80.37,52.661 C80.37,49.083 77.493,46.278 76.974,45.759 L49.791,18.577 C47.473,16.259 45.353,15.119 42.802,15.119 C39.875,15.119 37.497,17.015 35.935,18.577 L8.367,46.146 C7.544,46.969 4.779,48.661 2.263,46.146 C-0.17,43.713 1.529,40.777 2.263,40.043 L29.832,12.474 C31.216,11.09 35.811,6.487 42.871,6.487 C50.021,6.487 54.879,11.46 55.893,12.474 L83.075,39.656 C83.771,40.352 89,45.151 89,52.621 C89,59.936 84.195,64.599 83.076,65.72 L55.553,93.241 C54.419,94.374 51.563,95.356 49.455,93.248 L49.455,93.248 Z" id="Shape" fill="#4EE6D7"></path>
            <path d="M108.2,46.376 L108.2,21.16 C108.2,20.3919962 108.57333,19.7733357 109.32,19.304 C110.06667,18.8346643 111.05866,18.6 112.296,18.6 C113.320005,18.6 114.183996,18.8346643 114.888,19.304 C115.592004,19.7733357 115.944,20.3919962 115.944,21.16 L115.944,23.08 C116.62667,21.7146598 117.725326,20.5626714 119.24,19.624 C120.754674,18.6853286 122.514657,18.216 124.52,18.216 C127.464015,18.216 130.034656,19.4959872 132.232,22.056 C134.429344,24.6160128 135.528,27.666649 135.528,31.208 L135.528,46.376 C135.528,47.1866707 135.112004,47.8266643 134.28,48.296 C133.447996,48.7653357 132.477339,49 131.368,49 C130.301328,49 129.352004,48.7653357 128.52,48.296 C127.687996,47.8266643 127.272,47.1866707 127.272,46.376 L127.272,31.208 C127.272,29.7146592 126.717339,28.3813392 125.608,27.208 C124.498661,26.0346608 123.197341,25.448 121.704,25.448 C120.295993,25.448 119.069339,25.981328 118.024,27.048 C116.978661,28.114672 116.456,29.5013248 116.456,31.208 L116.456,46.376 C116.456,47.0160032 116.040004,47.6133306 115.208,48.168 C114.375996,48.7226694 113.405339,49 112.296,49 C111.143994,49 110.173337,48.733336 109.384,48.2 C108.594663,47.666664 108.2,47.0586701 108.2,46.376 L108.2,46.376 Z M140.52,36.456 L140.52,31.208 C140.52,27.7093158 141.88532,24.6693462 144.616,22.088 C147.34668,19.5066538 150.610648,18.216 154.408,18.216 C158.120019,18.216 161.362653,19.4959872 164.136,22.056 C166.909347,24.6160128 168.296,27.666649 168.296,31.208 L168.296,36.456 C168.296,39.9120173 166.909347,42.9626534 164.136,45.608 C161.362653,48.2533466 158.120019,49.576 154.408,49.576 C150.695981,49.576 147.453347,48.2533466 144.68,45.608 C141.906653,42.9626534 140.52,39.9120173 140.52,36.456 L140.52,36.456 Z M148.776,36.456 C148.776,37.9920077 149.330661,39.3573274 150.44,40.552 C151.549339,41.7466726 152.871992,42.344 154.408,42.344 C155.901341,42.344 157.213328,41.7466726 158.344,40.552 C159.474672,39.3573274 160.04,37.9920077 160.04,36.456 L160.04,31.208 C160.04,29.7573261 159.474672,28.4346726 158.344,27.24 C157.213328,26.0453274 155.901341,25.448 154.408,25.448 C152.871992,25.448 151.549339,26.0346608 150.44,27.208 C149.330661,28.3813392 148.776,29.7146592 148.776,31.208 L148.776,36.456 Z M172.456,36.456 L172.456,31.208 C172.456,27.666649 173.575989,24.6160128 175.816,22.056 C178.056011,19.4959872 180.733318,18.216 183.848,18.216 C185.725343,18.216 187.37866,18.6853286 188.808,19.624 C190.23734,20.5626714 191.335996,21.7146598 192.104,23.08 L192.104,3.432 C192.104,2.66399616 192.498663,2.04533568 193.288,1.576 C194.077337,1.10666432 195.069327,0.872 196.264,0.872 C197.458673,0.872 198.439996,1.10666432 199.208,1.576 C199.976004,2.04533568 200.36,2.66399616 200.36,3.432 L200.36,46.376 C200.36,47.0586701 199.965337,47.666664 199.176,48.2 C198.386663,48.733336 197.416006,49 196.264,49 C195.282662,49 194.41867,48.7226694 193.672,48.168 C192.92533,47.6133306 192.552,47.0160032 192.552,46.376 L192.552,44.52 C191.86933,45.8853402 190.706675,47.0693283 189.064,48.072 C187.421325,49.0746717 185.618676,49.576 183.656,49.576 C180.711985,49.576 178.109345,48.2533466 175.848,45.608 C173.586655,42.9626534 172.456,39.9120173 172.456,36.456 L172.456,36.456 Z M180.712,36.456 C180.712,37.9493408 181.266661,39.3039939 182.376,40.52 C183.485339,41.7360061 184.786659,42.344 186.28,42.344 C187.773341,42.344 189.117327,41.7573392 190.312,40.584 C191.506673,39.4106608 192.104,38.4186707 192.104,37.608 L192.104,31.208 C192.104,29.5013248 191.517339,28.114672 190.344,27.048 C189.170661,25.981328 187.837341,25.448 186.344,25.448 C184.807992,25.448 183.485339,26.0346608 182.376,27.208 C181.266661,28.3813392 180.712,29.7146592 180.712,31.208 L180.712,36.456 Z M205.672,36.456 L205.672,31.016 C205.672,27.5173158 207.03732,24.5093459 209.768,21.992 C212.49868,19.4746541 215.805314,18.216 219.688,18.216 C223.314685,18.216 226.418654,19.3573219 229,21.64 C231.581346,23.9226781 232.872,26.7919827 232.872,30.248 C232.872,31.5280064 232.712002,32.5839958 232.392,33.416 C232.071998,34.2480042 231.581337,34.834665 230.92,35.176 C230.258663,35.517335 229.650669,35.7306662 229.096,35.816 C228.541331,35.9013338 227.816004,35.944 226.92,35.944 L213.928,35.944 L213.928,36.904 C213.928,38.7386758 214.61066,40.2213277 215.976,41.352 C217.34134,42.4826723 219.154655,43.048 221.416,43.048 C223.037341,43.048 224.637325,42.6426707 226.216,41.832 C227.794675,41.0213293 228.818664,40.616 229.288,40.616 C230.184004,40.616 230.930664,41.0319958 231.528,41.864 C232.125336,42.6960042 232.424,43.4959962 232.424,44.264 C232.424,45.4586726 231.346677,46.6426608 229.192,47.816 C227.037323,48.9893392 224.360016,49.576 221.16,49.576 C216.594644,49.576 212.872014,48.3706787 209.992,45.96 C207.111986,43.5493213 205.672,40.381353 205.672,36.456 L205.672,36.456 Z M213.928,31.08 L223.272,31.08 C223.95467,31.08 224.434665,30.9626678 224.712,30.728 C224.989335,30.4933322 225.128,30.0346701 225.128,29.352 C225.128,27.8586592 224.584005,26.6426714 223.496,25.704 C222.407995,24.7653286 221.074675,24.296 219.496,24.296 C218.002659,24.296 216.701339,24.7546621 215.592,25.672 C214.482661,26.5893379 213.928,27.7946592 213.928,29.288 L213.928,31.08 Z M236.904,33.64 C236.904,32.6586618 237.138664,31.8373366 237.608,31.176 C238.077336,30.5146634 238.695996,30.184 239.464,30.184 L256.104,30.184 C256.78667,30.184 257.405331,30.5253299 257.96,31.208 C258.514669,31.8906701 258.792,32.7013286 258.792,33.64 C258.792,34.6213382 258.525336,35.4319968 257.992,36.072 C257.458664,36.7120032 256.829337,37.032 256.104,37.032 L239.464,37.032 C238.695996,37.032 238.077336,36.7226698 237.608,36.104 C237.138664,35.4853302 236.904,34.6640051 236.904,33.64 L236.904,33.64 Z M264.296,46.376 L264.296,3.432 C264.296,2.66399616 264.66933,2.04533568 265.416,1.576 C266.16267,1.10666432 267.133327,0.872 268.328,0.872 C269.522673,0.872 270.525329,1.10666432 271.336,1.576 C272.146671,2.04533568 272.552,2.66399616 272.552,3.432 L272.552,23.08 C273.277337,21.7146598 274.35466,20.5626714 275.784,19.624 C277.21334,18.6853286 278.866657,18.216 280.744,18.216 C283.858682,18.216 286.535989,19.4959872 288.776,22.056 C291.016011,24.6160128 292.136,27.666649 292.136,31.208 L292.136,36.456 C292.136,39.9120173 291.005345,42.9626534 288.744,45.608 C286.482655,48.2533466 283.880015,49.576 280.936,49.576 C279.01599,49.576 277.224008,49.0746717 275.56,48.072 C273.895992,47.0693283 272.72267,45.8853402 272.04,44.52 L272.04,46.376 C272.04,47.0160032 271.66667,47.6133306 270.92,48.168 C270.17333,48.7226694 269.309338,49 268.328,49 C267.175994,49 266.216004,48.733336 265.448,48.2 C264.679996,47.666664 264.296,47.0586701 264.296,46.376 L264.296,46.376 Z M272.552,37.608 C272.552,38.4186707 273.138661,39.4106608 274.312,40.584 C275.485339,41.7573392 276.818659,42.344 278.312,42.344 C279.805341,42.344 281.106661,41.7360061 282.216,40.52 C283.325339,39.3039939 283.88,37.9493408 283.88,36.456 L283.88,31.208 C283.88,29.7146592 283.325339,28.3813392 282.216,27.208 C281.106661,26.0346608 279.784008,25.448 278.248,25.448 C276.797326,25.448 275.485339,25.981328 274.312,27.048 C273.138661,28.114672 272.552,29.5013248 272.552,31.208 L272.552,37.608 Z M297.128,36.584 L297.128,21.224 C297.128,20.5839968 297.543996,19.9866694 298.376,19.432 C299.208004,18.8773306 300.178661,18.6 301.288,18.6 C302.354672,18.6 303.303996,18.8773306 304.136,19.432 C304.968004,19.9866694 305.384,20.5839968 305.384,21.224 L305.384,36.584 C305.384,38.0773408 305.938661,39.4106608 307.048,40.584 C308.157339,41.7573392 309.479992,42.344 311.016,42.344 C312.552008,42.344 313.863995,41.7573392 314.952,40.584 C316.040005,39.4106608 316.584,38.0773408 316.584,36.584 L316.584,21.16 C316.584,20.4773299 316.999996,19.8800026 317.832,19.368 C318.664004,18.8559974 319.634661,18.6 320.744,18.6 C321.938673,18.6 322.919996,18.8559974 323.688,19.368 C324.456004,19.8800026 324.84,20.4773299 324.84,21.16 L324.84,36.584 C324.84,40.0400173 323.47468,43.0693203 320.744,45.672 C318.01332,48.2746797 314.770685,49.576 311.016,49.576 C307.261315,49.576 304.008014,48.2746797 301.256,45.672 C298.503986,43.0693203 297.128,40.0400173 297.128,36.584 L297.128,36.584 Z M330.536,7.784 C330.536,6.67466112 330.973329,5.72533728 331.848,4.936 C332.722671,4.14666272 333.799994,3.752 335.08,3.752 C336.31734,3.752 337.373329,4.14666272 338.248,4.936 C339.122671,5.72533728 339.56,6.67466112 339.56,7.784 C339.56,8.850672 339.122671,9.78932928 338.248,10.6 C337.373329,11.4106707 336.31734,11.816 335.08,11.816 C333.799994,11.816 332.722671,11.4106707 331.848,10.6 C330.973329,9.78932928 330.536,8.850672 330.536,7.784 L330.536,7.784 Z M330.984,46.376 L330.984,21.16 C330.984,20.3919962 331.367996,19.7733357 332.136,19.304 C332.904004,18.8346643 333.885327,18.6 335.08,18.6 C336.274673,18.6 337.266663,18.8346643 338.056,19.304 C338.845337,19.7733357 339.24,20.3919962 339.24,21.16 L339.24,46.376 C339.24,47.0160032 338.824004,47.6133306 337.992,48.168 C337.159996,48.7226694 336.189339,49 335.08,49 C333.927994,49 332.957337,48.733336 332.168,48.2 C331.378663,47.666664 330.984,47.0586701 330.984,46.376 L330.984,46.376 Z M346.216,46.376 L346.216,3.432 C346.216,2.66399616 346.58933,2.04533568 347.336,1.576 C348.08267,1.10666432 349.07466,0.872 350.312,0.872 C351.464006,0.872 352.445329,1.10666432 353.256,1.576 C354.066671,2.04533568 354.472,2.66399616 354.472,3.432 L354.472,46.376 C354.472,47.0160032 354.056004,47.6133306 353.224,48.168 C352.391996,48.7226694 351.421339,49 350.312,49 C349.159994,49 348.189337,48.733336 347.4,48.2 C346.610663,47.666664 346.216,47.0586701 346.216,46.376 L346.216,46.376 Z M360.36,36.456 L360.36,31.208 C360.36,27.666649 361.479989,24.6160128 363.72,22.056 C365.960011,19.4959872 368.637318,18.216 371.752,18.216 C373.629343,18.216 375.28266,18.6853286 376.712,19.624 C378.14134,20.5626714 379.239996,21.7146598 380.008,23.08 L380.008,3.432 C380.008,2.66399616 380.402663,2.04533568 381.192,1.576 C381.981337,1.10666432 382.973327,0.872 384.168,0.872 C385.362673,0.872 386.343996,1.10666432 387.112,1.576 C387.880004,2.04533568 388.264,2.66399616 388.264,3.432 L388.264,46.376 C388.264,47.0586701 387.869337,47.666664 387.08,48.2 C386.290663,48.733336 385.320006,49 384.168,49 C383.186662,49 382.32267,48.7226694 381.576,48.168 C380.82933,47.6133306 380.456,47.0160032 380.456,46.376 L380.456,44.52 C379.77333,45.8853402 378.610675,47.0693283 376.968,48.072 C375.325325,49.0746717 373.522676,49.576 371.56,49.576 C368.615985,49.576 366.013345,48.2533466 363.752,45.608 C361.490655,42.9626534 360.36,39.9120173 360.36,36.456 L360.36,36.456 Z M368.616,36.456 C368.616,37.9493408 369.170661,39.3039939 370.28,40.52 C371.389339,41.7360061 372.690659,42.344 374.184,42.344 C375.677341,42.344 377.021327,41.7573392 378.216,40.584 C379.410673,39.4106608 380.008,38.4186707 380.008,37.608 L380.008,31.208 C380.008,29.5013248 379.421339,28.114672 378.248,27.048 C377.074661,25.981328 375.741341,25.448 374.248,25.448 C372.711992,25.448 371.389339,26.0346608 370.28,27.208 C369.170661,28.3813392 368.616,29.7146592 368.616,31.208 L368.616,36.456 Z M393.832,33.64 C393.832,32.6586618 394.066664,31.8373366 394.536,31.176 C395.005336,30.5146634 395.623996,30.184 396.392,30.184 L413.032,30.184 C413.71467,30.184 414.333331,30.5253299 414.888,31.208 C415.442669,31.8906701 415.72,32.7013286 415.72,33.64 C415.72,34.6213382 415.453336,35.4319968 414.92,36.072 C414.386664,36.7120032 413.757337,37.032 413.032,37.032 L396.392,37.032 C395.623996,37.032 395.005336,36.7226698 394.536,36.104 C394.066664,35.4853302 393.832,34.6640051 393.832,33.64 L393.832,33.64 Z M420.008,36.456 L420.008,31.016 C420.008,27.5173158 421.37332,24.5093459 424.104,21.992 C426.83468,19.4746541 430.141314,18.216 434.024,18.216 C437.650685,18.216 440.754654,19.3573219 443.336,21.64 C445.917346,23.9226781 447.208,26.7919827 447.208,30.248 C447.208,31.5280064 447.048002,32.5839958 446.728,33.416 C446.407998,34.2480042 445.917337,34.834665 445.256,35.176 C444.594663,35.517335 443.986669,35.7306662 443.432,35.816 C442.877331,35.9013338 442.152004,35.944 441.256,35.944 L428.264,35.944 L428.264,36.904 C428.264,38.7386758 428.94666,40.2213277 430.312,41.352 C431.67734,42.4826723 433.490655,43.048 435.752,43.048 C437.373341,43.048 438.973325,42.6426707 440.552,41.832 C442.130675,41.0213293 443.154664,40.616 443.624,40.616 C444.520004,40.616 445.266664,41.0319958 445.864,41.864 C446.461336,42.6960042 446.76,43.4959962 446.76,44.264 C446.76,45.4586726 445.682677,46.6426608 443.528,47.816 C441.373323,48.9893392 438.696016,49.576 435.496,49.576 C430.930644,49.576 427.208014,48.3706787 424.328,45.96 C421.447986,43.5493213 420.008,40.381353 420.008,36.456 L420.008,36.456 Z M428.264,31.08 L437.608,31.08 C438.29067,31.08 438.770665,30.9626678 439.048,30.728 C439.325335,30.4933322 439.464,30.0346701 439.464,29.352 C439.464,27.8586592 438.920005,26.6426714 437.832,25.704 C436.743995,24.7653286 435.410675,24.296 433.832,24.296 C432.338659,24.296 431.037339,24.7546621 429.928,25.672 C428.818661,26.5893379 428.264,27.7946592 428.264,29.288 L428.264,31.08 Z M450.408,44.072 C450.408,43.3039962 450.685331,42.5040042 451.24,41.672 C451.794669,40.8399958 452.434663,40.424 453.16,40.424 C453.629336,40.424 454.215996,40.6586643 454.92,41.128 C455.624004,41.5973357 456.551994,42.0773309 457.704,42.568 C458.856006,43.0586691 460.221325,43.304 461.8,43.304 C464.914682,43.304 466.472,42.3866758 466.472,40.552 C466.472,39.5279949 465.949339,38.7173363 464.904,38.12 C463.858661,37.5226637 462.600007,37.0320019 461.128,36.648 C459.655993,36.2639981 458.173341,35.805336 456.68,35.272 C455.186659,34.738664 453.917339,33.842673 452.872,32.584 C451.826661,31.325327 451.304,29.7146765 451.304,27.752 C451.304,25.1493203 452.221324,22.9093427 454.056,21.032 C455.890676,19.1546573 458.79198,18.216 462.76,18.216 C465.405347,18.216 467.762656,18.6213293 469.832,19.432 C471.901344,20.2426707 472.936,21.2239942 472.936,22.376 C472.936,23.101337 472.648003,23.9439952 472.072,24.904 C471.495997,25.8640048 470.781338,26.344 469.928,26.344 C469.586665,26.344 468.658674,26.0346698 467.144,25.416 C465.629326,24.7973302 464.210673,24.488 462.888,24.488 C461.437326,24.488 460.328004,24.7866637 459.56,25.384 C458.791996,25.9813363 458.408,26.642663 458.408,27.368 C458.408,28.093337 458.791996,28.6906643 459.56,29.16 C460.328004,29.6293357 461.277328,29.9919987 462.408,30.248 C463.538672,30.5040013 464.765327,30.8559978 466.088,31.304 C467.410673,31.7520022 468.637328,32.2746637 469.768,32.872 C470.898672,33.4693363 471.847996,34.397327 472.616,35.656 C473.384004,36.914673 473.768,38.439991 473.768,40.232 C473.768,43.1333478 472.733344,45.4159917 470.664,47.08 C468.594656,48.7440083 465.704019,49.576 461.992,49.576 C458.791984,49.576 456.061345,49.0213389 453.8,47.912 C451.538655,46.8026611 450.408,45.5226739 450.408,44.072 L450.408,44.072 Z M476.904,44.072 C476.904,43.3039962 477.181331,42.5040042 477.736,41.672 C478.290669,40.8399958 478.930663,40.424 479.656,40.424 C480.125336,40.424 480.711996,40.6586643 481.416,41.128 C482.120004,41.5973357 483.047994,42.0773309 484.2,42.568 C485.352006,43.0586691 486.717325,43.304 488.296,43.304 C491.410682,43.304 492.968,42.3866758 492.968,40.552 C492.968,39.5279949 492.445339,38.7173363 491.4,38.12 C490.354661,37.5226637 489.096007,37.0320019 487.624,36.648 C486.151993,36.2639981 484.669341,35.805336 483.176,35.272 C481.682659,34.738664 480.413339,33.842673 479.368,32.584 C478.322661,31.325327 477.8,29.7146765 477.8,27.752 C477.8,25.1493203 478.717324,22.9093427 480.552,21.032 C482.386676,19.1546573 485.28798,18.216 489.256,18.216 C491.901347,18.216 494.258656,18.6213293 496.328,19.432 C498.397344,20.2426707 499.432,21.2239942 499.432,22.376 C499.432,23.101337 499.144003,23.9439952 498.568,24.904 C497.991997,25.8640048 497.277338,26.344 496.424,26.344 C496.082665,26.344 495.154674,26.0346698 493.64,25.416 C492.125326,24.7973302 490.706673,24.488 489.384,24.488 C487.933326,24.488 486.824004,24.7866637 486.056,25.384 C485.287996,25.9813363 484.904,26.642663 484.904,27.368 C484.904,28.093337 485.287996,28.6906643 486.056,29.16 C486.824004,29.6293357 487.773328,29.9919987 488.904,30.248 C490.034672,30.5040013 491.261327,30.8559978 492.584,31.304 C493.906673,31.7520022 495.133328,32.2746637 496.264,32.872 C497.394672,33.4693363 498.343996,34.397327 499.112,35.656 C499.880004,36.914673 500.264,38.439991 500.264,40.232 C500.264,43.1333478 499.229344,45.4159917 497.16,47.08 C495.090656,48.7440083 492.200019,49.576 488.488,49.576 C485.287984,49.576 482.557345,49.0213389 480.296,47.912 C478.034655,46.8026611 476.904,45.5226739 476.904,44.072 L476.904,44.072 Z M503.976,36.456 L503.976,31.016 C503.976,27.5173158 505.34132,24.5093459 508.072,21.992 C510.80268,19.4746541 514.109314,18.216 517.992,18.216 C521.618685,18.216 524.722654,19.3573219 527.304,21.64 C529.885346,23.9226781 531.176,26.7919827 531.176,30.248 C531.176,31.5280064 531.016002,32.5839958 530.696,33.416 C530.375998,34.2480042 529.885337,34.834665 529.224,35.176 C528.562663,35.517335 527.954669,35.7306662 527.4,35.816 C526.845331,35.9013338 526.120004,35.944 525.224,35.944 L512.232,35.944 L512.232,36.904 C512.232,38.7386758 512.91466,40.2213277 514.28,41.352 C515.64534,42.4826723 517.458655,43.048 519.72,43.048 C521.341341,43.048 522.941325,42.6426707 524.52,41.832 C526.098675,41.0213293 527.122664,40.616 527.592,40.616 C528.488004,40.616 529.234664,41.0319958 529.832,41.864 C530.429336,42.6960042 530.728,43.4959962 530.728,44.264 C530.728,45.4586726 529.650677,46.6426608 527.496,47.816 C525.341323,48.9893392 522.664016,49.576 519.464,49.576 C514.898644,49.576 511.176014,48.3706787 508.296,45.96 C505.415986,43.5493213 503.976,40.381353 503.976,36.456 L503.976,36.456 Z M512.232,31.08 L521.576,31.08 C522.25867,31.08 522.738665,30.9626678 523.016,30.728 C523.293335,30.4933322 523.432,30.0346701 523.432,29.352 C523.432,27.8586592 522.888005,26.6426714 521.8,25.704 C520.711995,24.7653286 519.378675,24.296 517.8,24.296 C516.306659,24.296 515.005339,24.7546621 513.896,25.672 C512.786661,26.5893379 512.232,27.7946592 512.232,29.288 L512.232,31.08 Z M536.104,46.376 L536.104,21.16 C536.104,20.3919962 536.47733,19.7733357 537.224,19.304 C537.97067,18.8346643 538.96266,18.6 540.2,18.6 C541.224005,18.6 542.087996,18.8346643 542.792,19.304 C543.496004,19.7733357 543.848,20.3919962 543.848,21.16 L543.848,23.08 C544.53067,21.7146598 545.629326,20.5626714 547.144,19.624 C548.658674,18.6853286 550.418657,18.216 552.424,18.216 C555.368015,18.216 557.938656,19.4959872 560.136,22.056 C562.333344,24.6160128 563.432,27.666649 563.432,31.208 L563.432,46.376 C563.432,47.1866707 563.016004,47.8266643 562.184,48.296 C561.351996,48.7653357 560.381339,49 559.272,49 C558.205328,49 557.256004,48.7653357 556.424,48.296 C555.591996,47.8266643 555.176,47.1866707 555.176,46.376 L555.176,31.208 C555.176,29.7146592 554.621339,28.3813392 553.512,27.208 C552.402661,26.0346608 551.101341,25.448 549.608,25.448 C548.199993,25.448 546.973339,25.981328 545.928,27.048 C544.882661,28.114672 544.36,29.5013248 544.36,31.208 L544.36,46.376 C544.36,47.0160032 543.944004,47.6133306 543.112,48.168 C542.279996,48.7226694 541.309339,49 540.2,49 C539.047994,49 538.077337,48.733336 537.288,48.2 C536.498663,47.666664 536.104,47.0586701 536.104,46.376 L536.104,46.376 Z M569.512,38.632 L569.512,7.592 C569.512,6.86666304 569.938662,6.25866912 570.792,5.768 C571.645338,5.27733088 572.583995,5.032 573.608,5.032 C574.717339,5.032 575.687996,5.27733088 576.52,5.768 C577.352004,6.25866912 577.768,6.86666304 577.768,7.592 L577.768,18.6 L585.32,18.6 C585.960003,18.6 586.471998,18.8986637 586.856,19.496 C587.240002,20.0933363 587.432,20.7973293 587.432,21.608 C587.432,22.4186707 587.240002,23.1226637 586.856,23.72 C586.471998,24.3173363 585.960003,24.616 585.32,24.616 L577.768,24.616 L577.768,38.632 C577.768,39.8693395 578.034664,40.7439974 578.568,41.256 C579.101336,41.7680026 580.029327,42.024 581.352,42.024 L583.848,42.024 C584.957339,42.024 585.82133,42.3653299 586.44,43.048 C587.05867,43.7306701 587.368,44.5413286 587.368,45.48 C587.368,46.4613382 587.05867,47.2933299 586.44,47.976 C585.82133,48.6586701 584.957339,49 583.848,49 L581.352,49 C573.458627,49 569.512,45.5440346 569.512,38.632 L569.512,38.632 Z M591.336,7.784 C591.336,6.67466112 591.773329,5.72533728 592.648,4.936 C593.522671,4.14666272 594.599994,3.752 595.88,3.752 C597.11734,3.752 598.173329,4.14666272 599.048,4.936 C599.922671,5.72533728 600.36,6.67466112 600.36,7.784 C600.36,8.850672 599.922671,9.78932928 599.048,10.6 C598.173329,11.4106707 597.11734,11.816 595.88,11.816 C594.599994,11.816 593.522671,11.4106707 592.648,10.6 C591.773329,9.78932928 591.336,8.850672 591.336,7.784 L591.336,7.784 Z M591.784,46.376 L591.784,21.16 C591.784,20.3919962 592.167996,19.7733357 592.936,19.304 C593.704004,18.8346643 594.685327,18.6 595.88,18.6 C597.074673,18.6 598.066663,18.8346643 598.856,19.304 C599.645337,19.7733357 600.04,20.3919962 600.04,21.16 L600.04,46.376 C600.04,47.0160032 599.624004,47.6133306 598.792,48.168 C597.959996,48.7226694 596.989339,49 595.88,49 C594.727994,49 593.757337,48.733336 592.968,48.2 C592.178663,47.666664 591.784,47.0586701 591.784,46.376 L591.784,46.376 Z M604.648,41.064 C604.648,37.6079827 605.927987,35.176007 608.488,33.768 C611.048013,32.359993 614.738643,31.656 619.56,31.656 L622.184,31.656 L622.184,30.824 C622.184,29.2453254 621.725338,27.8693392 620.808,26.696 C619.890662,25.5226608 618.47201,24.936 616.552,24.936 C614.63199,24.936 612.98934,25.2666634 611.624,25.928 C610.25866,26.5893366 609.469334,26.92 609.256,26.92 C608.402662,26.92 607.720003,26.4933376 607.208,25.64 C606.695997,24.7866624 606.44,23.8480051 606.44,22.824 C606.44,21.5866605 607.538656,20.5093379 609.736,19.592 C611.933344,18.6746621 614.247988,18.216 616.68,18.216 C621.33069,18.216 624.786655,19.3999882 627.048,21.768 C629.309345,24.1360118 630.44,27.1119821 630.44,30.696 L630.44,46.376 C630.44,47.101337 630.056004,47.7199974 629.288,48.232 C628.519996,48.7440026 627.560006,49 626.408,49 C625.341328,49 624.456004,48.7440026 623.752,48.232 C623.047996,47.7199974 622.696,47.101337 622.696,46.376 L622.696,44.52 C619.751985,47.8906835 616.509351,49.576 612.968,49.576 C610.535988,49.576 608.541341,48.8506739 606.984,47.4 C605.426659,45.9493261 604.648,43.8373472 604.648,41.064 L604.648,41.064 Z M612.904,39.976 C612.904,41.1280058 613.21333,41.9919971 613.832,42.568 C614.45067,43.1440029 615.271995,43.432 616.296,43.432 C617.66134,43.432 618.983994,42.7920064 620.264,41.512 C621.544006,40.2319936 622.184,38.8240077 622.184,37.288 L622.184,35.944 L621.224,35.944 C618.62132,35.944 616.584007,36.210664 615.112,36.744 C613.639993,37.277336 612.904,38.3546586 612.904,39.976 L612.904,39.976 Z M637.16,46.376 L637.16,3.432 C637.16,2.66399616 637.53333,2.04533568 638.28,1.576 C639.02667,1.10666432 640.01866,0.872 641.256,0.872 C642.408006,0.872 643.389329,1.10666432 644.2,1.576 C645.010671,2.04533568 645.416,2.66399616 645.416,3.432 L645.416,46.376 C645.416,47.0160032 645.000004,47.6133306 644.168,48.168 C643.335996,48.7226694 642.365339,49 641.256,49 C640.103994,49 639.133337,48.733336 638.344,48.2 C637.554663,47.666664 637.16,47.0586701 637.16,46.376 L637.16,46.376 Z M650.664,44.072 C650.664,43.3039962 650.941331,42.5040042 651.496,41.672 C652.050669,40.8399958 652.690663,40.424 653.416,40.424 C653.885336,40.424 654.471996,40.6586643 655.176,41.128 C655.880004,41.5973357 656.807994,42.0773309 657.96,42.568 C659.112006,43.0586691 660.477325,43.304 662.056,43.304 C665.170682,43.304 666.728,42.3866758 666.728,40.552 C666.728,39.5279949 666.205339,38.7173363 665.16,38.12 C664.114661,37.5226637 662.856007,37.0320019 661.384,36.648 C659.911993,36.2639981 658.429341,35.805336 656.936,35.272 C655.442659,34.738664 654.173339,33.842673 653.128,32.584 C652.082661,31.325327 651.56,29.7146765 651.56,27.752 C651.56,25.1493203 652.477324,22.9093427 654.312,21.032 C656.146676,19.1546573 659.04798,18.216 663.016,18.216 C665.661347,18.216 668.018656,18.6213293 670.088,19.432 C672.157344,20.2426707 673.192,21.2239942 673.192,22.376 C673.192,23.101337 672.904003,23.9439952 672.328,24.904 C671.751997,25.8640048 671.037338,26.344 670.184,26.344 C669.842665,26.344 668.914674,26.0346698 667.4,25.416 C665.885326,24.7973302 664.466673,24.488 663.144,24.488 C661.693326,24.488 660.584004,24.7866637 659.816,25.384 C659.047996,25.9813363 658.664,26.642663 658.664,27.368 C658.664,28.093337 659.047996,28.6906643 659.816,29.16 C660.584004,29.6293357 661.533328,29.9919987 662.664,30.248 C663.794672,30.5040013 665.021327,30.8559978 666.344,31.304 C667.666673,31.7520022 668.893328,32.2746637 670.024,32.872 C671.154672,33.4693363 672.103996,34.397327 672.872,35.656 C673.640004,36.914673 674.024,38.439991 674.024,40.232 C674.024,43.1333478 672.989344,45.4159917 670.92,47.08 C668.850656,48.7440083 665.960019,49.576 662.248,49.576 C659.047984,49.576 656.317345,49.0213389 654.056,47.912 C651.794655,46.8026611 650.664,45.5226739 650.664,44.072 L650.664,44.072 Z" id="node-build-essential-copy" fill="#4EE6D7"></path>
            <path d="M110.814,73.1 C110.814,72.8199986 110.932999,72.5890009 111.171,72.407 C111.409001,72.2249991 111.681998,72.134 111.99,72.134 C112.382002,72.134 112.661999,72.3019983 112.83,72.638 L118.5,88.388 L123.078,73.94 C123.190001,73.5199979 123.497997,73.31 124.002,73.31 C124.478002,73.31 124.771999,73.5199979 124.884,73.94 L129.336,88.598 L135.132,72.638 C135.216,72.3019983 135.481998,72.134 135.93,72.134 C136.238002,72.134 136.503999,72.2179992 136.728,72.386 C136.952001,72.5540008 137.064,72.7779986 137.064,73.058 C137.064,73.3100013 137.008001,73.5199992 136.896,73.688 L130.344,91.706 C130.175999,92.098002 129.896002,92.294 129.504,92.294 C129.111998,92.294 128.832001,92.1120018 128.664,91.748 L124.002,76.964 L119.382,91.538 C119.213999,92.0420025 118.906002,92.294 118.458,92.294 C118.009998,92.294 117.702001,92.0420025 117.534,91.538 L110.982,73.688 C110.869999,73.3519983 110.814,73.1560003 110.814,73.1 L110.814,73.1 Z M140.592,91.076 L140.592,73.016 C140.592,72.4559972 140.927997,72.176 141.6,72.176 C141.880001,72.176 142.117999,72.2529992 142.314,72.407 C142.510001,72.5610008 142.608,72.7639987 142.608,73.016 L142.608,75.158 C143.112003,74.2339954 143.860995,73.4640031 144.855,72.848 C145.849005,72.2319969 147.003993,71.924 148.32,71.924 L149.832,71.924 C150.084001,71.924 150.300999,72.0149991 150.483,72.197 C150.665001,72.3790009 150.756,72.6099986 150.756,72.89 C150.756,73.1700014 150.665001,73.4009991 150.483,73.583 C150.300999,73.7650009 150.084001,73.856 149.832,73.856 L148.32,73.856 C146.807992,73.856 145.485006,74.4229943 144.351,75.557 C143.216994,76.6910057 142.65,78.1679909 142.65,79.988 L142.65,91.076 C142.65,91.3000011 142.545001,91.509999 142.335,91.706 C142.124999,91.902001 141.880001,92 141.6,92 C141.319999,92 141.082001,91.9090009 140.886,91.727 C140.689999,91.5449991 140.592,91.3280013 140.592,91.076 L140.592,91.076 Z M153.402,64.364 C153.402,63.971998 153.555998,63.6290015 153.864,63.335 C154.172002,63.0409985 154.549998,62.894 154.998,62.894 C155.418002,62.894 155.781998,63.0409985 156.09,63.335 C156.398002,63.6290015 156.552,63.971998 156.552,64.364 C156.552,64.7840021 156.398002,65.1479985 156.09,65.456 C155.781998,65.7640015 155.418002,65.918 154.998,65.918 C154.549998,65.918 154.172002,65.7640015 153.864,65.456 C153.555998,65.1479985 153.402,64.7840021 153.402,64.364 L153.402,64.364 Z M153.99,91.076 L153.99,73.016 C153.99,72.4559972 154.325997,72.176 154.998,72.176 C155.698003,72.176 156.048,72.4559972 156.048,73.016 L156.048,91.076 C156.048,91.3000011 155.943001,91.509999 155.733,91.706 C155.522999,91.902001 155.278001,92 154.998,92 C154.717999,92 154.480001,91.9090009 154.284,91.727 C154.087999,91.5449991 153.99,91.3280013 153.99,91.076 L153.99,91.076 Z M161.508,85.994 L161.508,63.44 C161.508,63.1879987 161.612999,62.9780008 161.823,62.81 C162.033001,62.6419992 162.263999,62.558 162.516,62.558 C162.796001,62.558 163.040999,62.6419992 163.251,62.81 C163.461001,62.9780008 163.566,63.1879987 163.566,63.44 L163.566,72.176 L169.152,72.176 C169.376001,72.176 169.564999,72.2669991 169.719,72.449 C169.873001,72.6310009 169.95,72.8479987 169.95,73.1 C169.95,73.3240011 169.866001,73.5269991 169.698,73.709 C169.529999,73.8910009 169.348001,73.982 169.152,73.982 L163.566,73.982 L163.566,85.994 C163.566,87.4780074 163.887997,88.5279969 164.532,89.144 C165.176003,89.7600031 166.295992,90.068 167.892,90.068 L168.942,90.068 C169.222001,90.068 169.452999,90.1589991 169.635,90.341 C169.817001,90.5230009 169.908,90.7539986 169.908,91.034 C169.908,91.2860013 169.817001,91.509999 169.635,91.706 C169.452999,91.902001 169.222001,92 168.942,92 L167.892,92 C163.635979,92 161.508,89.99802 161.508,85.994 L161.508,85.994 Z M172.344,84.482 L172.344,79.484 C172.344,77.4119896 173.099992,75.6340074 174.612,74.15 C176.124008,72.6659926 177.943989,71.924 180.072,71.924 C182.14401,71.924 183.935992,72.6519927 185.448,74.108 C186.960008,75.5640073 187.716,77.3699892 187.716,79.526 C187.716,80.2820038 187.625001,80.8909977 187.443,81.353 C187.260999,81.8150023 186.974002,82.143999 186.582,82.34 C186.189998,82.536001 185.833002,82.6549998 185.511,82.697 C185.188998,82.7390002 184.734003,82.76 184.146,82.76 L174.402,82.76 L174.402,84.524 C174.402,86.2880088 175.031994,87.7019947 176.292,88.766 C177.552006,89.8300053 179.17599,90.362 181.164,90.362 C182.172005,90.362 183.025996,90.2220014 183.726,89.942 C184.426003,89.6619986 184.957998,89.3820014 185.322,89.102 C185.686002,88.8219986 185.965999,88.682 186.162,88.682 C186.414001,88.682 186.637999,88.7939989 186.834,89.018 C187.030001,89.2420011 187.128,89.4659989 187.128,89.69 C187.128,90.2220027 186.547006,90.7819971 185.385,91.37 C184.222994,91.9580029 182.788009,92.252 181.08,92.252 C178.503987,92.252 176.404008,91.5380071 174.78,90.11 C173.155992,88.6819929 172.344,86.8060116 172.344,84.482 L172.344,84.482 Z M174.402,81.038 L183.348,81.038 C184.300005,81.038 184.929998,80.940001 185.238,80.744 C185.546002,80.547999 185.7,80.1420031 185.7,79.526 C185.7,78.0419926 185.168005,76.7120059 184.104,75.536 C183.039995,74.3599941 181.696008,73.772 180.072,73.772 C178.503992,73.772 177.167006,74.3179945 176.061,75.41 C174.954994,76.5020055 174.402,77.8039924 174.402,79.316 L174.402,81.038 Z M200.442,91.076 L200.442,60.71 C200.442,60.4579987 200.539999,60.2480008 200.736,60.08 C200.932001,59.9119992 201.169999,59.828 201.45,59.828 C201.758002,59.828 202.009999,59.9119992 202.206,60.08 C202.402001,60.2480008 202.5,60.4579987 202.5,60.71 L202.5,75.116 C202.976002,74.2199955 203.696995,73.4640031 204.663,72.848 C205.629005,72.2319969 206.769993,71.924 208.086,71.924 C210.13001,71.924 211.893993,72.6799924 213.378,74.192 C214.862007,75.7040076 215.604,77.5099895 215.604,79.61 L215.604,91.076 C215.604,91.6920031 215.254003,92 214.554,92 C213.881997,92 213.546,91.6920031 213.546,91.076 L213.546,79.61 C213.546,78.1259926 212.986006,76.7960059 211.866,75.62 C210.745994,74.4439941 209.430008,73.856 207.918,73.856 C206.489993,73.856 205.230005,74.3809947 204.138,75.431 C203.045995,76.4810052 202.5,77.8739913 202.5,79.61 L202.5,91.076 C202.5,91.3000011 202.395001,91.509999 202.185,91.706 C201.974999,91.902001 201.730001,92 201.45,92 C201.169999,92 200.932001,91.9090009 200.736,91.727 C200.539999,91.5449991 200.442,91.3280013 200.442,91.076 L200.442,91.076 Z M220.728,84.566 L220.728,73.058 C220.728,72.8339989 220.832999,72.6310009 221.043,72.449 C221.253001,72.2669991 221.497999,72.176 221.778,72.176 C222.030001,72.176 222.260999,72.2669991 222.471,72.449 C222.681001,72.6310009 222.786,72.8339989 222.786,73.058 L222.786,84.566 C222.786,86.0780076 223.338994,87.4149942 224.445,88.577 C225.551006,89.7390058 226.873992,90.32 228.414,90.32 C229.954008,90.32 231.276994,89.7390058 232.383,88.577 C233.489006,87.4149942 234.042,86.0780076 234.042,84.566 L234.042,73.016 C234.042,72.7919989 234.146999,72.5960008 234.357,72.428 C234.567001,72.2599992 234.811999,72.176 235.092,72.176 C235.372001,72.176 235.609999,72.2599992 235.806,72.428 C236.002001,72.5960008 236.1,72.7919989 236.1,73.016 L236.1,84.566 C236.1,86.6380104 235.344008,88.4369924 233.832,89.963 C232.319992,91.4890076 230.51401,92.252 228.414,92.252 C226.313989,92.252 224.508008,91.4820077 222.996,89.942 C221.483992,88.4019923 220.728,86.6100102 220.728,84.566 L220.728,84.566 Z M241.434,91.076 L241.434,73.016 C241.434,72.4559972 241.769997,72.176 242.442,72.176 C242.722001,72.176 242.959999,72.2529992 243.156,72.407 C243.352001,72.5610008 243.45,72.7639987 243.45,73.016 L243.45,75.116 C244.654006,72.9879894 246.529987,71.924 249.078,71.924 C250.450007,71.924 251.674995,72.3019962 252.753,73.058 C253.831005,73.8140038 254.649997,74.8359936 255.21,76.124 C255.910003,74.7519931 256.833994,73.7090036 257.982,72.995 C259.130006,72.2809964 260.333994,71.924 261.594,71.924 C263.49801,71.924 265.135993,72.6169931 266.508,74.003 C267.880007,75.3890069 268.566,77.2579882 268.566,79.61 L268.566,91.076 C268.566,91.3000011 268.461001,91.509999 268.251,91.706 C268.040999,91.902001 267.796001,92 267.516,92 C267.235999,92 266.998001,91.902001 266.802,91.706 C266.605999,91.509999 266.508,91.3000011 266.508,91.076 L266.508,79.61 C266.508,77.817991 265.983005,76.4110051 264.933,75.389 C263.882995,74.3669949 262.686007,73.856 261.342,73.856 C259.941993,73.856 258.703005,74.3739948 257.625,75.41 C256.546995,76.4460052 256.008,77.7759919 256.008,79.4 L256.008,91.118 C256.008,91.7060029 255.658003,92 254.958,92 C254.285997,92 253.95,91.7060029 253.95,91.118 L253.95,79.442 C253.95,77.8739922 253.453005,76.5510054 252.459,75.473 C251.464995,74.3949946 250.254007,73.856 248.826,73.856 C247.425993,73.856 246.187005,74.3809947 245.109,75.431 C244.030995,76.4810052 243.492,77.8739913 243.492,79.61 L243.492,91.076 C243.492,91.3000011 243.387001,91.509999 243.177,91.706 C242.966999,91.902001 242.722001,92 242.442,92 C242.161999,92 241.924001,91.9090009 241.728,91.727 C241.531999,91.5449991 241.434,91.3280013 241.434,91.076 L241.434,91.076 Z M272.556,86.708 C272.556,84.6079895 273.388992,83.1450041 275.055,82.319 C276.721008,81.4929959 279.149984,81.08 282.342,81.08 L284.61,81.08 L284.61,79.988 C284.61,78.3079916 284.169004,76.8590061 283.287,75.641 C282.404996,74.4229939 281.082009,73.814 279.318,73.814 C278.253995,73.814 277.260005,74.009998 276.336,74.402 C275.411995,74.794002 274.936,74.99 274.908,74.99 C274.627999,74.99 274.404001,74.8640013 274.236,74.612 C274.067999,74.3599987 273.984,74.1080013 273.984,73.856 C273.984,73.3799976 274.564994,72.939002 275.727,72.533 C276.889006,72.126998 278.113994,71.924 279.402,71.924 C281.894012,71.924 283.727994,72.6869924 284.904,74.213 C286.080006,75.7390076 286.668,77.6639884 286.668,79.988 L286.668,91.076 C286.668,91.3280013 286.570001,91.5449991 286.374,91.727 C286.177999,91.9090009 285.940001,92 285.66,92 C285.379999,92 285.142001,91.9090009 284.946,91.727 C284.749999,91.5449991 284.652,91.3280013 284.652,91.076 L284.652,89.06 C282.803991,91.1880106 280.704012,92.252 278.352,92.252 C276.643991,92.252 275.251005,91.7830047 274.173,90.845 C273.094995,89.9069953 272.556,88.5280091 272.556,86.708 L272.556,86.708 Z M274.614,86.624 C274.614,87.8840063 274.984996,88.8289968 275.727,89.459 C276.469004,90.0890031 277.441994,90.404 278.646,90.404 C280.074007,90.404 281.424994,89.8930051 282.699,88.871 C283.973006,87.8489949 284.61,86.8480049 284.61,85.868 L284.61,82.76 L282.552,82.76 C281.347994,82.76 280.340004,82.8019996 279.528,82.886 C278.715996,82.9700004 277.904004,83.1309988 277.092,83.369 C276.279996,83.6070012 275.664002,83.9989973 275.244,84.545 C274.823998,85.0910027 274.614,85.7839958 274.614,86.624 L274.614,86.624 Z M292.044,91.076 L292.044,73.016 C292.044,72.4559972 292.379997,72.176 293.052,72.176 C293.332001,72.176 293.569999,72.2529992 293.766,72.407 C293.962001,72.5610008 294.06,72.7639987 294.06,73.016 L294.06,75.116 C294.536002,74.2199955 295.263995,73.4640031 296.244,72.848 C297.224005,72.2319969 298.371993,71.924 299.688,71.924 C301.73201,71.924 303.495993,72.6799924 304.98,74.192 C306.464007,75.7040076 307.206,77.5099895 307.206,79.61 L307.206,91.076 C307.206,91.6920031 306.856003,92 306.156,92 C305.483997,92 305.148,91.6920031 305.148,91.076 L305.148,79.61 C305.148,78.1259926 304.588006,76.7960059 303.468,75.62 C302.347994,74.4439941 301.032008,73.856 299.52,73.856 C298.091993,73.856 296.832005,74.3809947 295.74,75.431 C294.647995,76.4810052 294.102,77.8739913 294.102,79.61 L294.102,91.076 C294.102,91.3000011 293.997001,91.509999 293.787,91.706 C293.576999,91.902001 293.332001,92 293.052,92 C292.771999,92 292.534001,91.9090009 292.338,91.727 C292.141999,91.5449991 292.044,91.3280013 292.044,91.076 L292.044,91.076 Z M320.94,91.076 L320.94,73.016 C320.94,72.4559972 321.275997,72.176 321.948,72.176 C322.228001,72.176 322.465999,72.2529992 322.662,72.407 C322.858001,72.5610008 322.956,72.7639987 322.956,73.016 L322.956,75.158 C323.460003,74.2339954 324.208995,73.4640031 325.203,72.848 C326.197005,72.2319969 327.351993,71.924 328.668,71.924 L330.18,71.924 C330.432001,71.924 330.648999,72.0149991 330.831,72.197 C331.013001,72.3790009 331.104,72.6099986 331.104,72.89 C331.104,73.1700014 331.013001,73.4009991 330.831,73.583 C330.648999,73.7650009 330.432001,73.856 330.18,73.856 L328.668,73.856 C327.155992,73.856 325.833006,74.4229943 324.699,75.557 C323.564994,76.6910057 322.998,78.1679909 322.998,79.988 L322.998,91.076 C322.998,91.3000011 322.893001,91.509999 322.683,91.706 C322.472999,91.902001 322.228001,92 321.948,92 C321.667999,92 321.430001,91.9090009 321.234,91.727 C321.037999,91.5449991 320.94,91.3280013 320.94,91.076 L320.94,91.076 Z M332.658,84.482 L332.658,79.484 C332.658,77.4119896 333.413992,75.6340074 334.926,74.15 C336.438008,72.6659926 338.257989,71.924 340.386,71.924 C342.45801,71.924 344.249992,72.6519927 345.762,74.108 C347.274008,75.5640073 348.03,77.3699892 348.03,79.526 C348.03,80.2820038 347.939001,80.8909977 347.757,81.353 C347.574999,81.8150023 347.288002,82.143999 346.896,82.34 C346.503998,82.536001 346.147002,82.6549998 345.825,82.697 C345.502998,82.7390002 345.048003,82.76 344.46,82.76 L334.716,82.76 L334.716,84.524 C334.716,86.2880088 335.345994,87.7019947 336.606,88.766 C337.866006,89.8300053 339.48999,90.362 341.478,90.362 C342.486005,90.362 343.339996,90.2220014 344.04,89.942 C344.740003,89.6619986 345.271998,89.3820014 345.636,89.102 C346.000002,88.8219986 346.279999,88.682 346.476,88.682 C346.728001,88.682 346.951999,88.7939989 347.148,89.018 C347.344001,89.2420011 347.442,89.4659989 347.442,89.69 C347.442,90.2220027 346.861006,90.7819971 345.699,91.37 C344.536994,91.9580029 343.102009,92.252 341.394,92.252 C338.817987,92.252 336.718008,91.5380071 335.094,90.11 C333.469992,88.6819929 332.658,86.8060116 332.658,84.482 L332.658,84.482 Z M334.716,81.038 L343.662,81.038 C344.614005,81.038 345.243998,80.940001 345.552,80.744 C345.860002,80.547999 346.014,80.1420031 346.014,79.526 C346.014,78.0419926 345.482005,76.7120059 344.418,75.536 C343.353995,74.3599941 342.010008,73.772 340.386,73.772 C338.817992,73.772 337.481006,74.3179945 336.375,75.41 C335.268994,76.5020055 334.716,77.8039924 334.716,79.316 L334.716,81.038 Z M350.97,86.708 C350.97,84.6079895 351.802992,83.1450041 353.469,82.319 C355.135008,81.4929959 357.563984,81.08 360.756,81.08 L363.024,81.08 L363.024,79.988 C363.024,78.3079916 362.583004,76.8590061 361.701,75.641 C360.818996,74.4229939 359.496009,73.814 357.732,73.814 C356.667995,73.814 355.674005,74.009998 354.75,74.402 C353.825995,74.794002 353.35,74.99 353.322,74.99 C353.041999,74.99 352.818001,74.8640013 352.65,74.612 C352.481999,74.3599987 352.398,74.1080013 352.398,73.856 C352.398,73.3799976 352.978994,72.939002 354.141,72.533 C355.303006,72.126998 356.527994,71.924 357.816,71.924 C360.308012,71.924 362.141994,72.6869924 363.318,74.213 C364.494006,75.7390076 365.082,77.6639884 365.082,79.988 L365.082,91.076 C365.082,91.3280013 364.984001,91.5449991 364.788,91.727 C364.591999,91.9090009 364.354001,92 364.074,92 C363.793999,92 363.556001,91.9090009 363.36,91.727 C363.163999,91.5449991 363.066,91.3280013 363.066,91.076 L363.066,89.06 C361.217991,91.1880106 359.118012,92.252 356.766,92.252 C355.057991,92.252 353.665005,91.7830047 352.587,90.845 C351.508995,89.9069953 350.97,88.5280091 350.97,86.708 L350.97,86.708 Z M353.028,86.624 C353.028,87.8840063 353.398996,88.8289968 354.141,89.459 C354.883004,90.0890031 355.855994,90.404 357.06,90.404 C358.488007,90.404 359.838994,89.8930051 361.113,88.871 C362.387006,87.8489949 363.024,86.8480049 363.024,85.868 L363.024,82.76 L360.966,82.76 C359.761994,82.76 358.754004,82.8019996 357.942,82.886 C357.129996,82.9700004 356.318004,83.1309988 355.506,83.369 C354.693996,83.6070012 354.078002,83.9989973 353.658,84.545 C353.237998,85.0910027 353.028,85.7839958 353.028,86.624 L353.028,86.624 Z M369.702,84.482 L369.702,79.61 C369.702,77.4819894 370.443993,75.6690075 371.928,74.171 C373.412007,72.6729925 375.18999,71.924 377.262,71.924 C378.550006,71.924 379.676995,72.224997 380.643,72.827 C381.609005,73.429003 382.343997,74.1919954 382.848,75.116 L382.848,60.71 C382.848,60.4579987 382.945999,60.2480008 383.142,60.08 C383.338001,59.9119992 383.589998,59.828 383.898,59.828 C384.178001,59.828 384.415999,59.9119992 384.612,60.08 C384.808001,60.2480008 384.906,60.4579987 384.906,60.71 L384.906,91.076 C384.906,91.3280013 384.808001,91.5449991 384.612,91.727 C384.415999,91.9090009 384.178001,92 383.898,92 C383.617999,92 383.380001,91.902001 383.184,91.706 C382.987999,91.509999 382.89,91.3000011 382.89,91.076 L382.89,89.06 C382.413998,89.9560045 381.651005,90.7119969 380.601,91.328 C379.550995,91.9440031 378.410006,92.252 377.178,92.252 C375.18999,92.252 373.447007,91.4680078 371.949,89.9 C370.450993,88.3319922 369.702,86.5260102 369.702,84.482 L369.702,84.482 Z M371.76,84.482 C371.76,85.9940076 372.319994,87.344994 373.44,88.535 C374.560006,89.7250059 375.861993,90.32 377.346,90.32 C378.774007,90.32 380.047994,89.7880053 381.168,88.724 C382.288006,87.6599947 382.848,86.7220041 382.848,85.91 L382.848,79.61 C382.848,77.9019915 382.295006,76.5160053 381.189,75.452 C380.082994,74.3879947 378.816007,73.856 377.388,73.856 C375.875992,73.856 374.560006,74.4439941 373.44,75.62 C372.319994,76.7960059 371.76,78.1259926 371.76,79.61 L371.76,84.482 Z M389.064,86.708 C389.064,84.6079895 389.896992,83.1450041 391.563,82.319 C393.229008,81.4929959 395.657984,81.08 398.85,81.08 L401.118,81.08 L401.118,79.988 C401.118,78.3079916 400.677004,76.8590061 399.795,75.641 C398.912996,74.4229939 397.590009,73.814 395.826,73.814 C394.761995,73.814 393.768005,74.009998 392.844,74.402 C391.919995,74.794002 391.444,74.99 391.416,74.99 C391.135999,74.99 390.912001,74.8640013 390.744,74.612 C390.575999,74.3599987 390.492,74.1080013 390.492,73.856 C390.492,73.3799976 391.072994,72.939002 392.235,72.533 C393.397006,72.126998 394.621994,71.924 395.91,71.924 C398.402012,71.924 400.235994,72.6869924 401.412,74.213 C402.588006,75.7390076 403.176,77.6639884 403.176,79.988 L403.176,91.076 C403.176,91.3280013 403.078001,91.5449991 402.882,91.727 C402.685999,91.9090009 402.448001,92 402.168,92 C401.887999,92 401.650001,91.9090009 401.454,91.727 C401.257999,91.5449991 401.16,91.3280013 401.16,91.076 L401.16,89.06 C399.311991,91.1880106 397.212012,92.252 394.86,92.252 C393.151991,92.252 391.759005,91.7830047 390.681,90.845 C389.602995,89.9069953 389.064,88.5280091 389.064,86.708 L389.064,86.708 Z M391.122,86.624 C391.122,87.8840063 391.492996,88.8289968 392.235,89.459 C392.977004,90.0890031 393.949994,90.404 395.154,90.404 C396.582007,90.404 397.932994,89.8930051 399.207,88.871 C400.481006,87.8489949 401.118,86.8480049 401.118,85.868 L401.118,82.76 L399.06,82.76 C397.855994,82.76 396.848004,82.8019996 396.036,82.886 C395.223996,82.9700004 394.412004,83.1309988 393.6,83.369 C392.787996,83.6070012 392.172002,83.9989973 391.752,84.545 C391.331998,85.0910027 391.122,85.7839958 391.122,86.624 L391.122,86.624 Z M408.552,91.076 L408.552,60.71 C408.552,60.4579987 408.649999,60.2480008 408.846,60.08 C409.042001,59.9119992 409.279999,59.828 409.56,59.828 C409.868002,59.828 410.119999,59.9119992 410.316,60.08 C410.512001,60.2480008 410.61,60.4579987 410.61,60.71 L410.61,75.116 C411.114003,74.1919954 411.848995,73.429003 412.815,72.827 C413.781005,72.224997 414.907994,71.924 416.196,71.924 C418.26801,71.924 420.045993,72.6729925 421.53,74.171 C423.014007,75.6690075 423.756,77.4819894 423.756,79.61 L423.756,84.482 C423.756,86.5260102 423.007007,88.3319922 421.509,89.9 C420.010993,91.4680078 418.26801,92.252 416.28,92.252 C415.047994,92.252 413.907005,91.9440031 412.857,91.328 C411.806995,90.7119969 411.044002,89.9560045 410.568,89.06 L410.568,91.076 C410.568,91.3000011 410.470001,91.509999 410.274,91.706 C410.077999,91.902001 409.840001,92 409.56,92 C409.279999,92 409.042001,91.9090009 408.846,91.727 C408.649999,91.5449991 408.552,91.3280013 408.552,91.076 L408.552,91.076 Z M410.61,85.91 C410.61,86.7220041 411.169994,87.6599947 412.29,88.724 C413.410006,89.7880053 414.683993,90.32 416.112,90.32 C417.596007,90.32 418.897994,89.7250059 420.018,88.535 C421.138006,87.344994 421.698,85.9940076 421.698,84.482 L421.698,79.61 C421.698,78.1259926 421.138006,76.7960059 420.018,75.62 C418.897994,74.4439941 417.582008,73.856 416.07,73.856 C414.641993,73.856 413.375006,74.3879947 412.269,75.452 C411.162994,76.5160053 410.61,77.9019915 410.61,79.61 L410.61,85.91 Z M428.838,91.076 L428.838,60.71 C428.838,60.4579987 428.935999,60.2480008 429.132,60.08 C429.328001,59.9119992 429.565999,59.828 429.846,59.828 C430.154002,59.828 430.405999,59.9119992 430.602,60.08 C430.798001,60.2480008 430.896,60.4579987 430.896,60.71 L430.896,91.076 C430.896,91.3000011 430.791001,91.509999 430.581,91.706 C430.370999,91.902001 430.126001,92 429.846,92 C429.565999,92 429.328001,91.9090009 429.132,91.727 C428.935999,91.5449991 428.838,91.3280013 428.838,91.076 L428.838,91.076 Z M436.02,84.482 L436.02,79.484 C436.02,77.4119896 436.775992,75.6340074 438.288,74.15 C439.800008,72.6659926 441.619989,71.924 443.748,71.924 C445.82001,71.924 447.611992,72.6519927 449.124,74.108 C450.636008,75.5640073 451.392,77.3699892 451.392,79.526 C451.392,80.2820038 451.301001,80.8909977 451.119,81.353 C450.936999,81.8150023 450.650002,82.143999 450.258,82.34 C449.865998,82.536001 449.509002,82.6549998 449.187,82.697 C448.864998,82.7390002 448.410003,82.76 447.822,82.76 L438.078,82.76 L438.078,84.524 C438.078,86.2880088 438.707994,87.7019947 439.968,88.766 C441.228006,89.8300053 442.85199,90.362 444.84,90.362 C445.848005,90.362 446.701996,90.2220014 447.402,89.942 C448.102003,89.6619986 448.633998,89.3820014 448.998,89.102 C449.362002,88.8219986 449.641999,88.682 449.838,88.682 C450.090001,88.682 450.313999,88.7939989 450.51,89.018 C450.706001,89.2420011 450.804,89.4659989 450.804,89.69 C450.804,90.2220027 450.223006,90.7819971 449.061,91.37 C447.898994,91.9580029 446.464009,92.252 444.756,92.252 C442.179987,92.252 440.080008,91.5380071 438.456,90.11 C436.831992,88.6819929 436.02,86.8060116 436.02,84.482 L436.02,84.482 Z M438.078,81.038 L447.024,81.038 C447.976005,81.038 448.605998,80.940001 448.914,80.744 C449.222002,80.547999 449.376,80.1420031 449.376,79.526 C449.376,78.0419926 448.844005,76.7120059 447.78,75.536 C446.715995,74.3599941 445.372008,73.772 443.748,73.772 C442.179992,73.772 440.843006,74.3179945 439.737,75.41 C438.630994,76.5020055 438.078,77.8039924 438.078,79.316 L438.078,81.038 Z M463.362,84.482 L463.362,79.61 C463.362,77.4819894 464.103993,75.6690075 465.588,74.171 C467.072007,72.6729925 468.84999,71.924 470.922,71.924 C472.210006,71.924 473.336995,72.224997 474.303,72.827 C475.269005,73.429003 476.003997,74.1919954 476.508,75.116 L476.508,60.71 C476.508,60.4579987 476.605999,60.2480008 476.802,60.08 C476.998001,59.9119992 477.249998,59.828 477.558,59.828 C477.838001,59.828 478.075999,59.9119992 478.272,60.08 C478.468001,60.2480008 478.566,60.4579987 478.566,60.71 L478.566,91.076 C478.566,91.3280013 478.468001,91.5449991 478.272,91.727 C478.075999,91.9090009 477.838001,92 477.558,92 C477.277999,92 477.040001,91.902001 476.844,91.706 C476.647999,91.509999 476.55,91.3000011 476.55,91.076 L476.55,89.06 C476.073998,89.9560045 475.311005,90.7119969 474.261,91.328 C473.210995,91.9440031 472.070006,92.252 470.838,92.252 C468.84999,92.252 467.107007,91.4680078 465.609,89.9 C464.110993,88.3319922 463.362,86.5260102 463.362,84.482 L463.362,84.482 Z M465.42,84.482 C465.42,85.9940076 465.979994,87.344994 467.1,88.535 C468.220006,89.7250059 469.521993,90.32 471.006,90.32 C472.434007,90.32 473.707994,89.7880053 474.828,88.724 C475.948006,87.6599947 476.508,86.7220041 476.508,85.91 L476.508,79.61 C476.508,77.9019915 475.955006,76.5160053 474.849,75.452 C473.742994,74.3879947 472.476007,73.856 471.048,73.856 C469.535992,73.856 468.220006,74.4439941 467.1,75.62 C465.979994,76.7960059 465.42,78.1259926 465.42,79.61 L465.42,84.482 Z M483.354,84.482 L483.354,79.484 C483.354,77.4119896 484.109992,75.6340074 485.622,74.15 C487.134008,72.6659926 488.953989,71.924 491.082,71.924 C493.15401,71.924 494.945992,72.6519927 496.458,74.108 C497.970008,75.5640073 498.726,77.3699892 498.726,79.526 C498.726,80.2820038 498.635001,80.8909977 498.453,81.353 C498.270999,81.8150023 497.984002,82.143999 497.592,82.34 C497.199998,82.536001 496.843002,82.6549998 496.521,82.697 C496.198998,82.7390002 495.744003,82.76 495.156,82.76 L485.412,82.76 L485.412,84.524 C485.412,86.2880088 486.041994,87.7019947 487.302,88.766 C488.562006,89.8300053 490.18599,90.362 492.174,90.362 C493.182005,90.362 494.035996,90.2220014 494.736,89.942 C495.436003,89.6619986 495.967998,89.3820014 496.332,89.102 C496.696002,88.8219986 496.975999,88.682 497.172,88.682 C497.424001,88.682 497.647999,88.7939989 497.844,89.018 C498.040001,89.2420011 498.138,89.4659989 498.138,89.69 C498.138,90.2220027 497.557006,90.7819971 496.395,91.37 C495.232994,91.9580029 493.798009,92.252 492.09,92.252 C489.513987,92.252 487.414008,91.5380071 485.79,90.11 C484.165992,88.6819929 483.354,86.8060116 483.354,84.482 L483.354,84.482 Z M485.412,81.038 L494.358,81.038 C495.310005,81.038 495.939998,80.940001 496.248,80.744 C496.556002,80.547999 496.71,80.1420031 496.71,79.526 C496.71,78.0419926 496.178005,76.7120059 495.114,75.536 C494.049995,74.3599941 492.706008,73.772 491.082,73.772 C489.513992,73.772 488.177006,74.3179945 487.071,75.41 C485.964994,76.5020055 485.412,77.8039924 485.412,79.316 L485.412,81.038 Z M503.052,100.946 L503.052,73.016 C503.052,72.4559972 503.387997,72.176 504.06,72.176 C504.340001,72.176 504.577999,72.2529992 504.774,72.407 C504.970001,72.5610008 505.068,72.7639987 505.068,73.016 L505.068,75.116 C506.272006,72.9879894 508.147987,71.924 510.696,71.924 C512.76801,71.924 514.545993,72.6729925 516.03,74.171 C517.514007,75.6690075 518.256,77.4819894 518.256,79.61 L518.256,84.482 C518.256,86.5260102 517.507007,88.3319922 516.009,89.9 C514.510993,91.4680078 512.76801,92.252 510.78,92.252 C509.547994,92.252 508.414005,91.9440031 507.378,91.328 C506.341995,90.7119969 505.586002,89.9560045 505.11,89.06 L505.11,100.946 C505.11,101.170001 505.005001,101.379999 504.795,101.576 C504.584999,101.772001 504.340001,101.87 504.06,101.87 C503.779999,101.87 503.542001,101.779001 503.346,101.597 C503.149999,101.414999 503.052,101.198001 503.052,100.946 L503.052,100.946 Z M505.11,85.91 C505.11,86.7220041 505.669994,87.6599947 506.79,88.724 C507.910006,89.7880053 509.183993,90.32 510.612,90.32 C512.096007,90.32 513.397994,89.7250059 514.518,88.535 C515.638006,87.344994 516.198,85.9940076 516.198,84.482 L516.198,79.61 C516.198,78.1259926 515.631006,76.7960059 514.497,75.62 C513.362994,74.4439941 512.040008,73.856 510.528,73.856 C509.099993,73.856 507.840005,74.3809947 506.748,75.431 C505.655995,76.4810052 505.11,77.8739913 505.11,79.61 L505.11,85.91 Z M523.338,91.076 L523.338,60.71 C523.338,60.4579987 523.435999,60.2480008 523.632,60.08 C523.828001,59.9119992 524.065999,59.828 524.346,59.828 C524.654002,59.828 524.905999,59.9119992 525.102,60.08 C525.298001,60.2480008 525.396,60.4579987 525.396,60.71 L525.396,91.076 C525.396,91.3000011 525.291001,91.509999 525.081,91.706 C524.870999,91.902001 524.626001,92 524.346,92 C524.065999,92 523.828001,91.9090009 523.632,91.727 C523.435999,91.5449991 523.338,91.3280013 523.338,91.076 L523.338,91.076 Z M530.478,84.482 L530.478,79.61 C530.478,77.5379896 531.233992,75.7390076 532.746,74.213 C534.258008,72.6869924 536.063989,71.924 538.164,71.924 C540.23601,71.924 542.041992,72.6799924 543.582,74.192 C545.122008,75.7040076 545.892,77.5099895 545.892,79.61 L545.892,84.482 C545.892,86.5260102 545.115008,88.3319922 543.561,89.9 C542.006992,91.4680078 540.20801,92.252 538.164,92.252 C536.11999,92.252 534.328008,91.4750078 532.788,89.921 C531.247992,88.3669922 530.478,86.5540104 530.478,84.482 L530.478,84.482 Z M532.536,84.482 C532.536,85.9940076 533.088994,87.344994 534.195,88.535 C535.301006,89.7250059 536.623992,90.32 538.164,90.32 C539.704008,90.32 541.033994,89.7250059 542.154,88.535 C543.274006,87.344994 543.834,85.9940076 543.834,84.482 L543.834,79.61 C543.834,78.1259926 543.274006,76.7960059 542.154,75.62 C541.033994,74.4439941 539.704008,73.856 538.164,73.856 C536.623992,73.856 535.301006,74.4439941 534.195,75.62 C533.088994,76.7960059 532.536,78.1259926 532.536,79.61 L532.536,84.482 Z M548.412,72.89 C548.412,72.6099986 548.537999,72.372001 548.79,72.176 C549.042001,71.979999 549.321998,71.882 549.63,71.882 C550.078002,71.882 550.344,72.0639982 550.428,72.428 L556.35,88.598 L562.104,72.428 C562.300001,72.0639982 562.565998,71.882 562.902,71.882 C563.182001,71.882 563.447999,71.979999 563.7,72.176 C563.952001,72.372001 564.078,72.6099986 564.078,72.89 C564.078,73.0300007 564.064,73.1419996 564.036,73.226 L557.4,91.328 L556.518,93.68 C556.349999,94.1280022 556.042002,94.8769947 555.594,95.927 C555.145998,96.9770052 554.740002,97.7609974 554.376,98.279 C554.011998,98.7970026 553.564003,99.3849967 553.032,100.043 C552.499997,100.701003 551.933003,101.169999 551.331,101.45 C550.728997,101.730001 550.092003,101.87 549.42,101.87 C548.775997,101.87 548.454,101.548003 548.454,100.904 C548.454,100.259997 548.705997,99.938 549.21,99.938 C551.534012,99.938 553.563991,97.0680287 555.3,91.328 L548.496,73.226 C548.44,73.0579992 548.412,72.9460003 548.412,72.89 L548.412,72.89 Z M574.746,89.396 C574.746,89.1719989 574.822999,88.955001 574.977,88.745 C575.131001,88.5349989 575.305999,88.43 575.502,88.43 C575.670001,88.4019999 575.893999,88.4999989 576.174,88.724 L577.14,89.396 C577.476002,89.6200011 577.993996,89.8439989 578.694,90.068 C579.394003,90.2920011 580.177996,90.404 581.046,90.404 C582.614008,90.404 583.775996,90.103003 584.532,89.501 C585.288004,88.898997 585.666,88.1220048 585.666,87.17 C585.666,86.0499944 585.309004,85.1680032 584.595,84.524 C583.880996,83.8799968 583.013005,83.4110015 581.991,83.117 C580.968995,82.8229985 579.940005,82.5080017 578.904,82.172 C577.867995,81.8359983 576.993004,81.2900038 576.279,80.534 C575.564996,79.7779962 575.208,78.7560064 575.208,77.468 C575.208,76.0119927 575.746995,74.7240056 576.825,73.604 C577.903005,72.4839944 579.491989,71.924 581.592,71.924 C582.908007,71.924 584.132994,72.126998 585.267,72.533 C586.401006,72.939002 586.968,73.3659978 586.968,73.814 C586.968,74.0380011 586.870001,74.2759987 586.674,74.528 C586.477999,74.7800013 586.268001,74.906 586.044,74.906 C586.016,74.906 585.526005,74.7170019 584.574,74.339 C583.621995,73.9609981 582.642005,73.772 581.634,73.772 C580.121992,73.772 578.995004,74.1499962 578.253,74.906 C577.510996,75.6620038 577.14,76.5019954 577.14,77.426 C577.14,78.3780048 577.496996,79.1199973 578.211,79.652 C578.925004,80.1840027 579.799995,80.5899986 580.836,80.87 C581.872005,81.1500014 582.907995,81.4649982 583.944,81.815 C584.980005,82.1650017 585.854996,82.7669957 586.569,83.621 C587.283004,84.4750043 587.64,85.6159929 587.64,87.044 C587.64,88.6680081 587.066006,89.9419954 585.918,90.866 C584.769994,91.7900046 583.16001,92.252 581.088,92.252 C579.295991,92.252 577.791006,91.9370031 576.573,91.307 C575.354994,90.6769968 574.746,90.0400032 574.746,89.396 L574.746,89.396 Z M591.21,84.482 L591.21,79.694 C591.21,77.3979885 591.874993,75.5290072 593.205,74.087 C594.535007,72.6449928 596.501987,71.924 599.106,71.924 C600.702008,71.924 602.045995,72.2109971 603.138,72.785 C604.230005,73.3590029 604.776,73.9259972 604.776,74.486 C604.776,74.7380013 604.678001,74.9689989 604.482,75.179 C604.285999,75.389001 604.062001,75.494 603.81,75.494 C603.669999,75.494 603.425002,75.3610013 603.075,75.095 C602.724998,74.8289987 602.214003,74.5560014 601.542,74.276 C600.869997,73.9959986 600.072005,73.856 599.148,73.856 C597.271991,73.856 595.823005,74.3739948 594.801,75.41 C593.778995,76.4460052 593.268,77.8739909 593.268,79.694 L593.268,84.482 C593.268,86.3300092 593.771995,87.7649949 594.78,88.787 C595.788005,89.8090051 597.25799,90.32 599.19,90.32 C600.170005,90.32 601.009996,90.1800014 601.71,89.9 C602.410003,89.6199986 602.941998,89.3400014 603.306,89.06 C603.670002,88.7799986 603.935999,88.64 604.104,88.64 C604.356001,88.64 604.572999,88.7449989 604.755,88.955 C604.937001,89.165001 605.028,89.3959987 605.028,89.648 C605.028,90.2360029 604.461006,90.8169971 603.327,91.391 C602.192994,91.9650029 600.786008,92.252 599.106,92.252 C596.529987,92.252 594.570007,91.5380071 593.226,90.11 C591.881993,88.6819929 591.21,86.8060116 591.21,84.482 L591.21,84.482 Z M608.976,91.076 L608.976,73.016 C608.976,72.4559972 609.311997,72.176 609.984,72.176 C610.264001,72.176 610.501999,72.2529992 610.698,72.407 C610.894001,72.5610008 610.992,72.7639987 610.992,73.016 L610.992,75.158 C611.496003,74.2339954 612.244995,73.4640031 613.239,72.848 C614.233005,72.2319969 615.387993,71.924 616.704,71.924 L618.216,71.924 C618.468001,71.924 618.684999,72.0149991 618.867,72.197 C619.049001,72.3790009 619.14,72.6099986 619.14,72.89 C619.14,73.1700014 619.049001,73.4009991 618.867,73.583 C618.684999,73.7650009 618.468001,73.856 618.216,73.856 L616.704,73.856 C615.191992,73.856 613.869006,74.4229943 612.735,75.557 C611.600994,76.6910057 611.034,78.1679909 611.034,79.988 L611.034,91.076 C611.034,91.3000011 610.929001,91.509999 610.719,91.706 C610.508999,91.902001 610.264001,92 609.984,92 C609.703999,92 609.466001,91.9090009 609.27,91.727 C609.073999,91.5449991 608.976,91.3280013 608.976,91.076 L608.976,91.076 Z M621.786,64.364 C621.786,63.971998 621.939998,63.6290015 622.248,63.335 C622.556002,63.0409985 622.933998,62.894 623.382,62.894 C623.802002,62.894 624.165998,63.0409985 624.474,63.335 C624.782002,63.6290015 624.936,63.971998 624.936,64.364 C624.936,64.7840021 624.782002,65.1479985 624.474,65.456 C624.165998,65.7640015 623.802002,65.918 623.382,65.918 C622.933998,65.918 622.556002,65.7640015 622.248,65.456 C621.939998,65.1479985 621.786,64.7840021 621.786,64.364 L621.786,64.364 Z M622.374,91.076 L622.374,73.016 C622.374,72.4559972 622.709997,72.176 623.382,72.176 C624.082003,72.176 624.432,72.4559972 624.432,73.016 L624.432,91.076 C624.432,91.3000011 624.327001,91.509999 624.117,91.706 C623.906999,91.902001 623.662001,92 623.382,92 C623.101999,92 622.864001,91.9090009 622.668,91.727 C622.471999,91.5449991 622.374,91.3280013 622.374,91.076 L622.374,91.076 Z M629.976,100.946 L629.976,73.016 C629.976,72.4559972 630.311997,72.176 630.984,72.176 C631.264001,72.176 631.501999,72.2529992 631.698,72.407 C631.894001,72.5610008 631.992,72.7639987 631.992,73.016 L631.992,75.116 C633.196006,72.9879894 635.071987,71.924 637.62,71.924 C639.69201,71.924 641.469993,72.6729925 642.954,74.171 C644.438007,75.6690075 645.18,77.4819894 645.18,79.61 L645.18,84.482 C645.18,86.5260102 644.431007,88.3319922 642.933,89.9 C641.434993,91.4680078 639.69201,92.252 637.704,92.252 C636.471994,92.252 635.338005,91.9440031 634.302,91.328 C633.265995,90.7119969 632.510002,89.9560045 632.034,89.06 L632.034,100.946 C632.034,101.170001 631.929001,101.379999 631.719,101.576 C631.508999,101.772001 631.264001,101.87 630.984,101.87 C630.703999,101.87 630.466001,101.779001 630.27,101.597 C630.073999,101.414999 629.976,101.198001 629.976,100.946 L629.976,100.946 Z M632.034,85.91 C632.034,86.7220041 632.593994,87.6599947 633.714,88.724 C634.834006,89.7880053 636.107993,90.32 637.536,90.32 C639.020007,90.32 640.321994,89.7250059 641.442,88.535 C642.562006,87.344994 643.122,85.9940076 643.122,84.482 L643.122,79.61 C643.122,78.1259926 642.555006,76.7960059 641.421,75.62 C640.286994,74.4439941 638.964008,73.856 637.452,73.856 C636.023993,73.856 634.764005,74.3809947 633.672,75.431 C632.579995,76.4810052 632.034,77.8739913 632.034,79.61 L632.034,85.91 Z M649.842,85.994 L649.842,63.44 C649.842,63.1879987 649.946999,62.9780008 650.157,62.81 C650.367001,62.6419992 650.597999,62.558 650.85,62.558 C651.130001,62.558 651.374999,62.6419992 651.585,62.81 C651.795001,62.9780008 651.9,63.1879987 651.9,63.44 L651.9,72.176 L657.486,72.176 C657.710001,72.176 657.898999,72.2669991 658.053,72.449 C658.207001,72.6310009 658.284,72.8479987 658.284,73.1 C658.284,73.3240011 658.200001,73.5269991 658.032,73.709 C657.863999,73.8910009 657.682001,73.982 657.486,73.982 L651.9,73.982 L651.9,85.994 C651.9,87.4780074 652.221997,88.5279969 652.866,89.144 C653.510003,89.7600031 654.629992,90.068 656.226,90.068 L657.276,90.068 C657.556001,90.068 657.786999,90.1589991 657.969,90.341 C658.151001,90.5230009 658.242,90.7539986 658.242,91.034 C658.242,91.2860013 658.151001,91.509999 657.969,91.706 C657.786999,91.902001 657.556001,92 657.276,92 L656.226,92 C651.969979,92 649.842,89.99802 649.842,85.994 L649.842,85.994 Z M660.594,89.396 C660.594,89.1719989 660.670999,88.955001 660.825,88.745 C660.979001,88.5349989 661.153999,88.43 661.35,88.43 C661.518001,88.4019999 661.741999,88.4999989 662.022,88.724 L662.988,89.396 C663.324002,89.6200011 663.841996,89.8439989 664.542,90.068 C665.242003,90.2920011 666.025996,90.404 666.894,90.404 C668.462008,90.404 669.623996,90.103003 670.38,89.501 C671.136004,88.898997 671.514,88.1220048 671.514,87.17 C671.514,86.0499944 671.157004,85.1680032 670.443,84.524 C669.728996,83.8799968 668.861005,83.4110015 667.839,83.117 C666.816995,82.8229985 665.788005,82.5080017 664.752,82.172 C663.715995,81.8359983 662.841004,81.2900038 662.127,80.534 C661.412996,79.7779962 661.056,78.7560064 661.056,77.468 C661.056,76.0119927 661.594995,74.7240056 662.673,73.604 C663.751005,72.4839944 665.339989,71.924 667.44,71.924 C668.756007,71.924 669.980994,72.126998 671.115,72.533 C672.249006,72.939002 672.816,73.3659978 672.816,73.814 C672.816,74.0380011 672.718001,74.2759987 672.522,74.528 C672.325999,74.7800013 672.116001,74.906 671.892,74.906 C671.864,74.906 671.374005,74.7170019 670.422,74.339 C669.469995,73.9609981 668.490005,73.772 667.482,73.772 C665.969992,73.772 664.843004,74.1499962 664.101,74.906 C663.358996,75.6620038 662.988,76.5019954 662.988,77.426 C662.988,78.3780048 663.344996,79.1199973 664.059,79.652 C664.773004,80.1840027 665.647995,80.5899986 666.684,80.87 C667.720005,81.1500014 668.755995,81.4649982 669.792,81.815 C670.828005,82.1650017 671.702996,82.7669957 672.417,83.621 C673.131004,84.4750043 673.488,85.6159929 673.488,87.044 C673.488,88.6680081 672.914006,89.9419954 671.766,90.866 C670.617994,91.7900046 669.00801,92.252 666.936,92.252 C665.143991,92.252 663.639006,91.9370031 662.421,91.307 C661.202994,90.6769968 660.594,90.0400032 660.594,89.396 L660.594,89.396 Z" id="write-human-readable-copy" fill="#000000"></path>
            <path d="M20.1629509,38.1629509 L58.1629509,38.1629509 L58.1629509,74.1629509 L20.1629509,74.1629509 L20.1629509,38.1629509 Z M39.8415223,52.8296176 L50.0200938,66.1629509 L29.6629509,66.1629509 L39.8415223,52.8296176 Z M35.0915223,66.1629509 L44.5915223,66.1629509 L44.5915223,74.1629509 L35.0915223,74.1629509 L35.0915223,66.1629509 Z" id="Combined-Shape" fill="#4DE6D8" transform="translate(39.162951, 56.162951) rotate(45.000000) translate(-39.162951, -56.162951) "></path>
        </g>
    </g>
</svg>