<?xml version="1.0" encoding="UTF-8" standalone="no"?>
<svg width="718px" height="102px" viewBox="0 0 718 102" version="1.1" xmlns="http://www.w3.org/2000/svg" xmlns:xlink="http://www.w3.org/1999/xlink">
    <!-- Generator: Sketch 39.1 (31720) - http://www.bohemiancoding.com/sketch -->
    <title>Group</title>
    <desc>Created with Sketch.</desc>
    <defs></defs>
    <g id="Page-1" stroke="none" stroke-width="1" fill="none" fill-rule="evenodd">
        <g id="Group" transform="translate(-1.000000, 0.000000)">
            <path d="M49.455,93.248 C47.234,91.026 48.405,88.183 49.437,87.151 L76.974,59.614 C77.562,59.025 80.37,56.327 80.37,52.661 C80.37,49.083 77.493,46.278 76.974,45.759 L49.791,18.577 C47.473,16.259 45.353,15.119 42.802,15.119 C39.875,15.119 37.497,17.015 35.935,18.577 L8.367,46.146 C7.544,46.969 4.779,48.661 2.263,46.146 C-0.17,43.713 1.529,40.777 2.263,40.043 L29.832,12.474 C31.216,11.09 35.811,6.487 42.871,6.487 C50.021,6.487 54.879,11.46 55.893,12.474 L83.075,39.656 C83.771,40.352 89,45.151 89,52.621 C89,59.936 84.195,64.599 83.076,65.72 L55.553,93.241 C54.419,94.374 51.563,95.356 49.455,93.248 L49.455,93.248 Z" id="Shape" fill="#4EE6D7"></path>
            <path d="M153.814,73.1 C153.814,72.8199986 153.932999,72.5890009 154.171,72.407 C154.409001,72.2249991 154.681998,72.134 154.99,72.134 C155.382002,72.134 155.661999,72.3019983 155.83,72.638 L161.5,88.388 L166.078,73.94 C166.190001,73.5199979 166.497997,73.31 167.002,73.31 C167.478002,73.31 167.771999,73.5199979 167.884,73.94 L172.336,88.598 L178.132,72.638 C178.216,72.3019983 178.481998,72.134 178.93,72.134 C179.238002,72.134 179.503999,72.2179992 179.728,72.386 C179.952001,72.5540008 180.064,72.7779986 180.064,73.058 C180.064,73.3100013 180.008001,73.5199992 179.896,73.688 L173.344,91.706 C173.175999,92.098002 172.896002,92.294 172.504,92.294 C172.111998,92.294 171.832001,92.1120018 171.664,91.748 L167.002,76.964 L162.382,91.538 C162.213999,92.0420025 161.906002,92.294 161.458,92.294 C161.009998,92.294 160.702001,92.0420025 160.534,91.538 L153.982,73.688 C153.869999,73.3519983 153.814,73.1560003 153.814,73.1 L153.814,73.1 Z M183.592,91.076 L183.592,73.016 C183.592,72.4559972 183.927997,72.176 184.6,72.176 C184.880001,72.176 185.117999,72.2529992 185.314,72.407 C185.510001,72.5610008 185.608,72.7639987 185.608,73.016 L185.608,75.158 C186.112003,74.2339954 186.860995,73.4640031 187.855,72.848 C188.849005,72.2319969 190.003993,71.924 191.32,71.924 L192.832,71.924 C193.084001,71.924 193.300999,72.0149991 193.483,72.197 C193.665001,72.3790009 193.756,72.6099986 193.756,72.89 C193.756,73.1700014 193.665001,73.4009991 193.483,73.583 C193.300999,73.7650009 193.084001,73.856 192.832,73.856 L191.32,73.856 C189.807992,73.856 188.485006,74.4229943 187.351,75.557 C186.216994,76.6910057 185.65,78.1679909 185.65,79.988 L185.65,91.076 C185.65,91.3000011 185.545001,91.509999 185.335,91.706 C185.124999,91.902001 184.880001,92 184.6,92 C184.319999,92 184.082001,91.9090009 183.886,91.727 C183.689999,91.5449991 183.592,91.3280013 183.592,91.076 L183.592,91.076 Z M196.402,64.364 C196.402,63.971998 196.555998,63.6290015 196.864,63.335 C197.172002,63.0409985 197.549998,62.894 197.998,62.894 C198.418002,62.894 198.781998,63.0409985 199.09,63.335 C199.398002,63.6290015 199.552,63.971998 199.552,64.364 C199.552,64.7840021 199.398002,65.1479985 199.09,65.456 C198.781998,65.7640015 198.418002,65.918 197.998,65.918 C197.549998,65.918 197.172002,65.7640015 196.864,65.456 C196.555998,65.1479985 196.402,64.7840021 196.402,64.364 L196.402,64.364 Z M196.99,91.076 L196.99,73.016 C196.99,72.4559972 197.325997,72.176 197.998,72.176 C198.698003,72.176 199.048,72.4559972 199.048,73.016 L199.048,91.076 C199.048,91.3000011 198.943001,91.509999 198.733,91.706 C198.522999,91.902001 198.278001,92 197.998,92 C197.717999,92 197.480001,91.9090009 197.284,91.727 C197.087999,91.5449991 196.99,91.3280013 196.99,91.076 L196.99,91.076 Z M204.508,85.994 L204.508,63.44 C204.508,63.1879987 204.612999,62.9780008 204.823,62.81 C205.033001,62.6419992 205.263999,62.558 205.516,62.558 C205.796001,62.558 206.040999,62.6419992 206.251,62.81 C206.461001,62.9780008 206.566,63.1879987 206.566,63.44 L206.566,72.176 L212.152,72.176 C212.376001,72.176 212.564999,72.2669991 212.719,72.449 C212.873001,72.6310009 212.95,72.8479987 212.95,73.1 C212.95,73.3240011 212.866001,73.5269991 212.698,73.709 C212.529999,73.8910009 212.348001,73.982 212.152,73.982 L206.566,73.982 L206.566,85.994 C206.566,87.4780074 206.887997,88.5279969 207.532,89.144 C208.176003,89.7600031 209.295992,90.068 210.892,90.068 L211.942,90.068 C212.222001,90.068 212.452999,90.1589991 212.635,90.341 C212.817001,90.5230009 212.908,90.7539986 212.908,91.034 C212.908,91.2860013 212.817001,91.509999 212.635,91.706 C212.452999,91.902001 212.222001,92 211.942,92 L210.892,92 C206.635979,92 204.508,89.99802 204.508,85.994 L204.508,85.994 Z M215.344,84.482 L215.344,79.484 C215.344,77.4119896 216.099992,75.6340074 217.612,74.15 C219.124008,72.6659926 220.943989,71.924 223.072,71.924 C225.14401,71.924 226.935992,72.6519927 228.448,74.108 C229.960008,75.5640073 230.716,77.3699892 230.716,79.526 C230.716,80.2820038 230.625001,80.8909977 230.443,81.353 C230.260999,81.8150023 229.974002,82.143999 229.582,82.34 C229.189998,82.536001 228.833002,82.6549998 228.511,82.697 C228.188998,82.7390002 227.734003,82.76 227.146,82.76 L217.402,82.76 L217.402,84.524 C217.402,86.2880088 218.031994,87.7019947 219.292,88.766 C220.552006,89.8300053 222.17599,90.362 224.164,90.362 C225.172005,90.362 226.025996,90.2220014 226.726,89.942 C227.426003,89.6619986 227.957998,89.3820014 228.322,89.102 C228.686002,88.8219986 228.965999,88.682 229.162,88.682 C229.414001,88.682 229.637999,88.7939989 229.834,89.018 C230.030001,89.2420011 230.128,89.4659989 230.128,89.69 C230.128,90.2220027 229.547006,90.7819971 228.385,91.37 C227.222994,91.9580029 225.788009,92.252 224.08,92.252 C221.503987,92.252 219.404008,91.5380071 217.78,90.11 C216.155992,88.6819929 215.344,86.8060116 215.344,84.482 L215.344,84.482 Z M217.402,81.038 L226.348,81.038 C227.300005,81.038 227.929998,80.940001 228.238,80.744 C228.546002,80.547999 228.7,80.1420031 228.7,79.526 C228.7,78.0419926 228.168005,76.7120059 227.104,75.536 C226.039995,74.3599941 224.696008,73.772 223.072,73.772 C221.503992,73.772 220.167006,74.3179945 219.061,75.41 C217.954994,76.5020055 217.402,77.8039924 217.402,79.316 L217.402,81.038 Z M243.442,91.076 L243.442,60.71 C243.442,60.4579987 243.539999,60.2480008 243.736,60.08 C243.932001,59.9119992 244.169999,59.828 244.45,59.828 C244.758002,59.828 245.009999,59.9119992 245.206,60.08 C245.402001,60.2480008 245.5,60.4579987 245.5,60.71 L245.5,75.116 C245.976002,74.2199955 246.696995,73.4640031 247.663,72.848 C248.629005,72.2319969 249.769993,71.924 251.086,71.924 C253.13001,71.924 254.893993,72.6799924 256.378,74.192 C257.862007,75.7040076 258.604,77.5099895 258.604,79.61 L258.604,91.076 C258.604,91.6920031 258.254003,92 257.554,92 C256.881997,92 256.546,91.6920031 256.546,91.076 L256.546,79.61 C256.546,78.1259926 255.986006,76.7960059 254.866,75.62 C253.745994,74.4439941 252.430008,73.856 250.918,73.856 C249.489993,73.856 248.230005,74.3809947 247.138,75.431 C246.045995,76.4810052 245.5,77.8739913 245.5,79.61 L245.5,91.076 C245.5,91.3000011 245.395001,91.509999 245.185,91.706 C244.974999,91.902001 244.730001,92 244.45,92 C244.169999,92 243.932001,91.9090009 243.736,91.727 C243.539999,91.5449991 243.442,91.3280013 243.442,91.076 L243.442,91.076 Z M263.728,84.566 L263.728,73.058 C263.728,72.8339989 263.832999,72.6310009 264.043,72.449 C264.253001,72.2669991 264.497999,72.176 264.778,72.176 C265.030001,72.176 265.260999,72.2669991 265.471,72.449 C265.681001,72.6310009 265.786,72.8339989 265.786,73.058 L265.786,84.566 C265.786,86.0780076 266.338994,87.4149942 267.445,88.577 C268.551006,89.7390058 269.873992,90.32 271.414,90.32 C272.954008,90.32 274.276994,89.7390058 275.383,88.577 C276.489006,87.4149942 277.042,86.0780076 277.042,84.566 L277.042,73.016 C277.042,72.7919989 277.146999,72.5960008 277.357,72.428 C277.567001,72.2599992 277.811999,72.176 278.092,72.176 C278.372001,72.176 278.609999,72.2599992 278.806,72.428 C279.002001,72.5960008 279.1,72.7919989 279.1,73.016 L279.1,84.566 C279.1,86.6380104 278.344008,88.4369924 276.832,89.963 C275.319992,91.4890076 273.51401,92.252 271.414,92.252 C269.313989,92.252 267.508008,91.4820077 265.996,89.942 C264.483992,88.4019923 263.728,86.6100102 263.728,84.566 L263.728,84.566 Z M284.434,91.076 L284.434,73.016 C284.434,72.4559972 284.769997,72.176 285.442,72.176 C285.722001,72.176 285.959999,72.2529992 286.156,72.407 C286.352001,72.5610008 286.45,72.7639987 286.45,73.016 L286.45,75.116 C287.654006,72.9879894 289.529987,71.924 292.078,71.924 C293.450007,71.924 294.674995,72.3019962 295.753,73.058 C296.831005,73.8140038 297.649997,74.8359936 298.21,76.124 C298.910003,74.7519931 299.833994,73.7090036 300.982,72.995 C302.130006,72.2809964 303.333994,71.924 304.594,71.924 C306.49801,71.924 308.135993,72.6169931 309.508,74.003 C310.880007,75.3890069 311.566,77.2579882 311.566,79.61 L311.566,91.076 C311.566,91.3000011 311.461001,91.509999 311.251,91.706 C311.040999,91.902001 310.796001,92 310.516,92 C310.235999,92 309.998001,91.902001 309.802,91.706 C309.605999,91.509999 309.508,91.3000011 309.508,91.076 L309.508,79.61 C309.508,77.817991 308.983005,76.4110051 307.933,75.389 C306.882995,74.3669949 305.686007,73.856 304.342,73.856 C302.941993,73.856 301.703005,74.3739948 300.625,75.41 C299.546995,76.4460052 299.008,77.7759919 299.008,79.4 L299.008,91.118 C299.008,91.7060029 298.658003,92 297.958,92 C297.285997,92 296.95,91.7060029 296.95,91.118 L296.95,79.442 C296.95,77.8739922 296.453005,76.5510054 295.459,75.473 C294.464995,74.3949946 293.254007,73.856 291.826,73.856 C290.425993,73.856 289.187005,74.3809947 288.109,75.431 C287.030995,76.4810052 286.492,77.8739913 286.492,79.61 L286.492,91.076 C286.492,91.3000011 286.387001,91.509999 286.177,91.706 C285.966999,91.902001 285.722001,92 285.442,92 C285.161999,92 284.924001,91.9090009 284.728,91.727 C284.531999,91.5449991 284.434,91.3280013 284.434,91.076 L284.434,91.076 Z M315.556,86.708 C315.556,84.6079895 316.388992,83.1450041 318.055,82.319 C319.721008,81.4929959 322.149984,81.08 325.342,81.08 L327.61,81.08 L327.61,79.988 C327.61,78.3079916 327.169004,76.8590061 326.287,75.641 C325.404996,74.4229939 324.082009,73.814 322.318,73.814 C321.253995,73.814 320.260005,74.009998 319.336,74.402 C318.411995,74.794002 317.936,74.99 317.908,74.99 C317.627999,74.99 317.404001,74.8640013 317.236,74.612 C317.067999,74.3599987 316.984,74.1080013 316.984,73.856 C316.984,73.3799976 317.564994,72.939002 318.727,72.533 C319.889006,72.126998 321.113994,71.924 322.402,71.924 C324.894012,71.924 326.727994,72.6869924 327.904,74.213 C329.080006,75.7390076 329.668,77.6639884 329.668,79.988 L329.668,91.076 C329.668,91.3280013 329.570001,91.5449991 329.374,91.727 C329.177999,91.9090009 328.940001,92 328.66,92 C328.379999,92 328.142001,91.9090009 327.946,91.727 C327.749999,91.5449991 327.652,91.3280013 327.652,91.076 L327.652,89.06 C325.803991,91.1880106 323.704012,92.252 321.352,92.252 C319.643991,92.252 318.251005,91.7830047 317.173,90.845 C316.094995,89.9069953 315.556,88.5280091 315.556,86.708 L315.556,86.708 Z M317.614,86.624 C317.614,87.8840063 317.984996,88.8289968 318.727,89.459 C319.469004,90.0890031 320.441994,90.404 321.646,90.404 C323.074007,90.404 324.424994,89.8930051 325.699,88.871 C326.973006,87.8489949 327.61,86.8480049 327.61,85.868 L327.61,82.76 L325.552,82.76 C324.347994,82.76 323.340004,82.8019996 322.528,82.886 C321.715996,82.9700004 320.904004,83.1309988 320.092,83.369 C319.279996,83.6070012 318.664002,83.9989973 318.244,84.545 C317.823998,85.0910027 317.614,85.7839958 317.614,86.624 L317.614,86.624 Z M335.044,91.076 L335.044,73.016 C335.044,72.4559972 335.379997,72.176 336.052,72.176 C336.332001,72.176 336.569999,72.2529992 336.766,72.407 C336.962001,72.5610008 337.06,72.7639987 337.06,73.016 L337.06,75.116 C337.536002,74.2199955 338.263995,73.4640031 339.244,72.848 C340.224005,72.2319969 341.371993,71.924 342.688,71.924 C344.73201,71.924 346.495993,72.6799924 347.98,74.192 C349.464007,75.7040076 350.206,77.5099895 350.206,79.61 L350.206,91.076 C350.206,91.6920031 349.856003,92 349.156,92 C348.483997,92 348.148,91.6920031 348.148,91.076 L348.148,79.61 C348.148,78.1259926 347.588006,76.7960059 346.468,75.62 C345.347994,74.4439941 344.032008,73.856 342.52,73.856 C341.091993,73.856 339.832005,74.3809947 338.74,75.431 C337.647995,76.4810052 337.102,77.8739913 337.102,79.61 L337.102,91.076 C337.102,91.3000011 336.997001,91.509999 336.787,91.706 C336.576999,91.902001 336.332001,92 336.052,92 C335.771999,92 335.534001,91.9090009 335.338,91.727 C335.141999,91.5449991 335.044,91.3280013 335.044,91.076 L335.044,91.076 Z M363.94,91.076 L363.94,73.016 C363.94,72.4559972 364.275997,72.176 364.948,72.176 C365.228001,72.176 365.465999,72.2529992 365.662,72.407 C365.858001,72.5610008 365.956,72.7639987 365.956,73.016 L365.956,75.158 C366.460003,74.2339954 367.208995,73.4640031 368.203,72.848 C369.197005,72.2319969 370.351993,71.924 371.668,71.924 L373.18,71.924 C373.432001,71.924 373.648999,72.0149991 373.831,72.197 C374.013001,72.3790009 374.104,72.6099986 374.104,72.89 C374.104,73.1700014 374.013001,73.4009991 373.831,73.583 C373.648999,73.7650009 373.432001,73.856 373.18,73.856 L371.668,73.856 C370.155992,73.856 368.833006,74.4229943 367.699,75.557 C366.564994,76.6910057 365.998,78.1679909 365.998,79.988 L365.998,91.076 C365.998,91.3000011 365.893001,91.509999 365.683,91.706 C365.472999,91.902001 365.228001,92 364.948,92 C364.667999,92 364.430001,91.9090009 364.234,91.727 C364.037999,91.5449991 363.94,91.3280013 363.94,91.076 L363.94,91.076 Z M375.658,84.482 L375.658,79.484 C375.658,77.4119896 376.413992,75.6340074 377.926,74.15 C379.438008,72.6659926 381.257989,71.924 383.386,71.924 C385.45801,71.924 387.249992,72.6519927 388.762,74.108 C390.274008,75.5640073 391.03,77.3699892 391.03,79.526 C391.03,80.2820038 390.939001,80.8909977 390.757,81.353 C390.574999,81.8150023 390.288002,82.143999 389.896,82.34 C389.503998,82.536001 389.147002,82.6549998 388.825,82.697 C388.502998,82.7390002 388.048003,82.76 387.46,82.76 L377.716,82.76 L377.716,84.524 C377.716,86.2880088 378.345994,87.7019947 379.606,88.766 C380.866006,89.8300053 382.48999,90.362 384.478,90.362 C385.486005,90.362 386.339996,90.2220014 387.04,89.942 C387.740003,89.6619986 388.271998,89.3820014 388.636,89.102 C389.000002,88.8219986 389.279999,88.682 389.476,88.682 C389.728001,88.682 389.951999,88.7939989 390.148,89.018 C390.344001,89.2420011 390.442,89.4659989 390.442,89.69 C390.442,90.2220027 389.861006,90.7819971 388.699,91.37 C387.536994,91.9580029 386.102009,92.252 384.394,92.252 C381.817987,92.252 379.718008,91.5380071 378.094,90.11 C376.469992,88.6819929 375.658,86.8060116 375.658,84.482 L375.658,84.482 Z M377.716,81.038 L386.662,81.038 C387.614005,81.038 388.243998,80.940001 388.552,80.744 C388.860002,80.547999 389.014,80.1420031 389.014,79.526 C389.014,78.0419926 388.482005,76.7120059 387.418,75.536 C386.353995,74.3599941 385.010008,73.772 383.386,73.772 C381.817992,73.772 380.481006,74.3179945 379.375,75.41 C378.268994,76.5020055 377.716,77.8039924 377.716,79.316 L377.716,81.038 Z M393.97,86.708 C393.97,84.6079895 394.802992,83.1450041 396.469,82.319 C398.135008,81.4929959 400.563984,81.08 403.756,81.08 L406.024,81.08 L406.024,79.988 C406.024,78.3079916 405.583004,76.8590061 404.701,75.641 C403.818996,74.4229939 402.496009,73.814 400.732,73.814 C399.667995,73.814 398.674005,74.009998 397.75,74.402 C396.825995,74.794002 396.35,74.99 396.322,74.99 C396.041999,74.99 395.818001,74.8640013 395.65,74.612 C395.481999,74.3599987 395.398,74.1080013 395.398,73.856 C395.398,73.3799976 395.978994,72.939002 397.141,72.533 C398.303006,72.126998 399.527994,71.924 400.816,71.924 C403.308012,71.924 405.141994,72.6869924 406.318,74.213 C407.494006,75.7390076 408.082,77.6639884 408.082,79.988 L408.082,91.076 C408.082,91.3280013 407.984001,91.5449991 407.788,91.727 C407.591999,91.9090009 407.354001,92 407.074,92 C406.793999,92 406.556001,91.9090009 406.36,91.727 C406.163999,91.5449991 406.066,91.3280013 406.066,91.076 L406.066,89.06 C404.217991,91.1880106 402.118012,92.252 399.766,92.252 C398.057991,92.252 396.665005,91.7830047 395.587,90.845 C394.508995,89.9069953 393.97,88.5280091 393.97,86.708 L393.97,86.708 Z M396.028,86.624 C396.028,87.8840063 396.398996,88.8289968 397.141,89.459 C397.883004,90.0890031 398.855994,90.404 400.06,90.404 C401.488007,90.404 402.838994,89.8930051 404.113,88.871 C405.387006,87.8489949 406.024,86.8480049 406.024,85.868 L406.024,82.76 L403.966,82.76 C402.761994,82.76 401.754004,82.8019996 400.942,82.886 C400.129996,82.9700004 399.318004,83.1309988 398.506,83.369 C397.693996,83.6070012 397.078002,83.9989973 396.658,84.545 C396.237998,85.0910027 396.028,85.7839958 396.028,86.624 L396.028,86.624 Z M412.702,84.482 L412.702,79.61 C412.702,77.4819894 413.443993,75.6690075 414.928,74.171 C416.412007,72.6729925 418.18999,71.924 420.262,71.924 C421.550006,71.924 422.676995,72.224997 423.643,72.827 C424.609005,73.429003 425.343997,74.1919954 425.848,75.116 L425.848,60.71 C425.848,60.4579987 425.945999,60.2480008 426.142,60.08 C426.338001,59.9119992 426.589998,59.828 426.898,59.828 C427.178001,59.828 427.415999,59.9119992 427.612,60.08 C427.808001,60.2480008 427.906,60.4579987 427.906,60.71 L427.906,91.076 C427.906,91.3280013 427.808001,91.5449991 427.612,91.727 C427.415999,91.9090009 427.178001,92 426.898,92 C426.617999,92 426.380001,91.902001 426.184,91.706 C425.987999,91.509999 425.89,91.3000011 425.89,91.076 L425.89,89.06 C425.413998,89.9560045 424.651005,90.7119969 423.601,91.328 C422.550995,91.9440031 421.410006,92.252 420.178,92.252 C418.18999,92.252 416.447007,91.4680078 414.949,89.9 C413.450993,88.3319922 412.702,86.5260102 412.702,84.482 L412.702,84.482 Z M414.76,84.482 C414.76,85.9940076 415.319994,87.344994 416.44,88.535 C417.560006,89.7250059 418.861993,90.32 420.346,90.32 C421.774007,90.32 423.047994,89.7880053 424.168,88.724 C425.288006,87.6599947 425.848,86.7220041 425.848,85.91 L425.848,79.61 C425.848,77.9019915 425.295006,76.5160053 424.189,75.452 C423.082994,74.3879947 421.816007,73.856 420.388,73.856 C418.875992,73.856 417.560006,74.4439941 416.44,75.62 C415.319994,76.7960059 414.76,78.1259926 414.76,79.61 L414.76,84.482 Z M432.064,86.708 C432.064,84.6079895 432.896992,83.1450041 434.563,82.319 C436.229008,81.4929959 438.657984,81.08 441.85,81.08 L444.118,81.08 L444.118,79.988 C444.118,78.3079916 443.677004,76.8590061 442.795,75.641 C441.912996,74.4229939 440.590009,73.814 438.826,73.814 C437.761995,73.814 436.768005,74.009998 435.844,74.402 C434.919995,74.794002 434.444,74.99 434.416,74.99 C434.135999,74.99 433.912001,74.8640013 433.744,74.612 C433.575999,74.3599987 433.492,74.1080013 433.492,73.856 C433.492,73.3799976 434.072994,72.939002 435.235,72.533 C436.397006,72.126998 437.621994,71.924 438.91,71.924 C441.402012,71.924 443.235994,72.6869924 444.412,74.213 C445.588006,75.7390076 446.176,77.6639884 446.176,79.988 L446.176,91.076 C446.176,91.3280013 446.078001,91.5449991 445.882,91.727 C445.685999,91.9090009 445.448001,92 445.168,92 C444.887999,92 444.650001,91.9090009 444.454,91.727 C444.257999,91.5449991 444.16,91.3280013 444.16,91.076 L444.16,89.06 C442.311991,91.1880106 440.212012,92.252 437.86,92.252 C436.151991,92.252 434.759005,91.7830047 433.681,90.845 C432.602995,89.9069953 432.064,88.5280091 432.064,86.708 L432.064,86.708 Z M434.122,86.624 C434.122,87.8840063 434.492996,88.8289968 435.235,89.459 C435.977004,90.0890031 436.949994,90.404 438.154,90.404 C439.582007,90.404 440.932994,89.8930051 442.207,88.871 C443.481006,87.8489949 444.118,86.8480049 444.118,85.868 L444.118,82.76 L442.06,82.76 C440.855994,82.76 439.848004,82.8019996 439.036,82.886 C438.223996,82.9700004 437.412004,83.1309988 436.6,83.369 C435.787996,83.6070012 435.172002,83.9989973 434.752,84.545 C434.331998,85.0910027 434.122,85.7839958 434.122,86.624 L434.122,86.624 Z M451.552,91.076 L451.552,60.71 C451.552,60.4579987 451.649999,60.2480008 451.846,60.08 C452.042001,59.9119992 452.279999,59.828 452.56,59.828 C452.868002,59.828 453.119999,59.9119992 453.316,60.08 C453.512001,60.2480008 453.61,60.4579987 453.61,60.71 L453.61,75.116 C454.114003,74.1919954 454.848995,73.429003 455.815,72.827 C456.781005,72.224997 457.907994,71.924 459.196,71.924 C461.26801,71.924 463.045993,72.6729925 464.53,74.171 C466.014007,75.6690075 466.756,77.4819894 466.756,79.61 L466.756,84.482 C466.756,86.5260102 466.007007,88.3319922 464.509,89.9 C463.010993,91.4680078 461.26801,92.252 459.28,92.252 C458.047994,92.252 456.907005,91.9440031 455.857,91.328 C454.806995,90.7119969 454.044002,89.9560045 453.568,89.06 L453.568,91.076 C453.568,91.3000011 453.470001,91.509999 453.274,91.706 C453.077999,91.902001 452.840001,92 452.56,92 C452.279999,92 452.042001,91.9090009 451.846,91.727 C451.649999,91.5449991 451.552,91.3280013 451.552,91.076 L451.552,91.076 Z M453.61,85.91 C453.61,86.7220041 454.169994,87.6599947 455.29,88.724 C456.410006,89.7880053 457.683993,90.32 459.112,90.32 C460.596007,90.32 461.897994,89.7250059 463.018,88.535 C464.138006,87.344994 464.698,85.9940076 464.698,84.482 L464.698,79.61 C464.698,78.1259926 464.138006,76.7960059 463.018,75.62 C461.897994,74.4439941 460.582008,73.856 459.07,73.856 C457.641993,73.856 456.375006,74.3879947 455.269,75.452 C454.162994,76.5160053 453.61,77.9019915 453.61,79.61 L453.61,85.91 Z M471.838,91.076 L471.838,60.71 C471.838,60.4579987 471.935999,60.2480008 472.132,60.08 C472.328001,59.9119992 472.565999,59.828 472.846,59.828 C473.154002,59.828 473.405999,59.9119992 473.602,60.08 C473.798001,60.2480008 473.896,60.4579987 473.896,60.71 L473.896,91.076 C473.896,91.3000011 473.791001,91.509999 473.581,91.706 C473.370999,91.902001 473.126001,92 472.846,92 C472.565999,92 472.328001,91.9090009 472.132,91.727 C471.935999,91.5449991 471.838,91.3280013 471.838,91.076 L471.838,91.076 Z M479.02,84.482 L479.02,79.484 C479.02,77.4119896 479.775992,75.6340074 481.288,74.15 C482.800008,72.6659926 484.619989,71.924 486.748,71.924 C488.82001,71.924 490.611992,72.6519927 492.124,74.108 C493.636008,75.5640073 494.392,77.3699892 494.392,79.526 C494.392,80.2820038 494.301001,80.8909977 494.119,81.353 C493.936999,81.8150023 493.650002,82.143999 493.258,82.34 C492.865998,82.536001 492.509002,82.6549998 492.187,82.697 C491.864998,82.7390002 491.410003,82.76 490.822,82.76 L481.078,82.76 L481.078,84.524 C481.078,86.2880088 481.707994,87.7019947 482.968,88.766 C484.228006,89.8300053 485.85199,90.362 487.84,90.362 C488.848005,90.362 489.701996,90.2220014 490.402,89.942 C491.102003,89.6619986 491.633998,89.3820014 491.998,89.102 C492.362002,88.8219986 492.641999,88.682 492.838,88.682 C493.090001,88.682 493.313999,88.7939989 493.51,89.018 C493.706001,89.2420011 493.804,89.4659989 493.804,89.69 C493.804,90.2220027 493.223006,90.7819971 492.061,91.37 C490.898994,91.9580029 489.464009,92.252 487.756,92.252 C485.179987,92.252 483.080008,91.5380071 481.456,90.11 C479.831992,88.6819929 479.02,86.8060116 479.02,84.482 L479.02,84.482 Z M481.078,81.038 L490.024,81.038 C490.976005,81.038 491.605998,80.940001 491.914,80.744 C492.222002,80.547999 492.376,80.1420031 492.376,79.526 C492.376,78.0419926 491.844005,76.7120059 490.78,75.536 C489.715995,74.3599941 488.372008,73.772 486.748,73.772 C485.179992,73.772 483.843006,74.3179945 482.737,75.41 C481.630994,76.5020055 481.078,77.8039924 481.078,79.316 L481.078,81.038 Z M506.362,84.482 L506.362,79.61 C506.362,77.4819894 507.103993,75.6690075 508.588,74.171 C510.072007,72.6729925 511.84999,71.924 513.922,71.924 C515.210006,71.924 516.336995,72.224997 517.303,72.827 C518.269005,73.429003 519.003997,74.1919954 519.508,75.116 L519.508,60.71 C519.508,60.4579987 519.605999,60.2480008 519.802,60.08 C519.998001,59.9119992 520.249998,59.828 520.558,59.828 C520.838001,59.828 521.075999,59.9119992 521.272,60.08 C521.468001,60.2480008 521.566,60.4579987 521.566,60.71 L521.566,91.076 C521.566,91.3280013 521.468001,91.5449991 521.272,91.727 C521.075999,91.9090009 520.838001,92 520.558,92 C520.277999,92 520.040001,91.902001 519.844,91.706 C519.647999,91.509999 519.55,91.3000011 519.55,91.076 L519.55,89.06 C519.073998,89.9560045 518.311005,90.7119969 517.261,91.328 C516.210995,91.9440031 515.070006,92.252 513.838,92.252 C511.84999,92.252 510.107007,91.4680078 508.609,89.9 C507.110993,88.3319922 506.362,86.5260102 506.362,84.482 L506.362,84.482 Z M508.42,84.482 C508.42,85.9940076 508.979994,87.344994 510.1,88.535 C511.220006,89.7250059 512.521993,90.32 514.006,90.32 C515.434007,90.32 516.707994,89.7880053 517.828,88.724 C518.948006,87.6599947 519.508,86.7220041 519.508,85.91 L519.508,79.61 C519.508,77.9019915 518.955006,76.5160053 517.849,75.452 C516.742994,74.3879947 515.476007,73.856 514.048,73.856 C512.535992,73.856 511.220006,74.4439941 510.1,75.62 C508.979994,76.7960059 508.42,78.1259926 508.42,79.61 L508.42,84.482 Z M526.354,84.482 L526.354,79.484 C526.354,77.4119896 527.109992,75.6340074 528.622,74.15 C530.134008,72.6659926 531.953989,71.924 534.082,71.924 C536.15401,71.924 537.945992,72.6519927 539.458,74.108 C540.970008,75.5640073 541.726,77.3699892 541.726,79.526 C541.726,80.2820038 541.635001,80.8909977 541.453,81.353 C541.270999,81.8150023 540.984002,82.143999 540.592,82.34 C540.199998,82.536001 539.843002,82.6549998 539.521,82.697 C539.198998,82.7390002 538.744003,82.76 538.156,82.76 L528.412,82.76 L528.412,84.524 C528.412,86.2880088 529.041994,87.7019947 530.302,88.766 C531.562006,89.8300053 533.18599,90.362 535.174,90.362 C536.182005,90.362 537.035996,90.2220014 537.736,89.942 C538.436003,89.6619986 538.967998,89.3820014 539.332,89.102 C539.696002,88.8219986 539.975999,88.682 540.172,88.682 C540.424001,88.682 540.647999,88.7939989 540.844,89.018 C541.040001,89.2420011 541.138,89.4659989 541.138,89.69 C541.138,90.2220027 540.557006,90.7819971 539.395,91.37 C538.232994,91.9580029 536.798009,92.252 535.09,92.252 C532.513987,92.252 530.414008,91.5380071 528.79,90.11 C527.165992,88.6819929 526.354,86.8060116 526.354,84.482 L526.354,84.482 Z M528.412,81.038 L537.358,81.038 C538.310005,81.038 538.939998,80.940001 539.248,80.744 C539.556002,80.547999 539.71,80.1420031 539.71,79.526 C539.71,78.0419926 539.178005,76.7120059 538.114,75.536 C537.049995,74.3599941 535.706008,73.772 534.082,73.772 C532.513992,73.772 531.177006,74.3179945 530.071,75.41 C528.964994,76.5020055 528.412,77.8039924 528.412,79.316 L528.412,81.038 Z M546.052,100.946 L546.052,73.016 C546.052,72.4559972 546.387997,72.176 547.06,72.176 C547.340001,72.176 547.577999,72.2529992 547.774,72.407 C547.970001,72.5610008 548.068,72.7639987 548.068,73.016 L548.068,75.116 C549.272006,72.9879894 551.147987,71.924 553.696,71.924 C555.76801,71.924 557.545993,72.6729925 559.03,74.171 C560.514007,75.6690075 561.256,77.4819894 561.256,79.61 L561.256,84.482 C561.256,86.5260102 560.507007,88.3319922 559.009,89.9 C557.510993,91.4680078 555.76801,92.252 553.78,92.252 C552.547994,92.252 551.414005,91.9440031 550.378,91.328 C549.341995,90.7119969 548.586002,89.9560045 548.11,89.06 L548.11,100.946 C548.11,101.170001 548.005001,101.379999 547.795,101.576 C547.584999,101.772001 547.340001,101.87 547.06,101.87 C546.779999,101.87 546.542001,101.779001 546.346,101.597 C546.149999,101.414999 546.052,101.198001 546.052,100.946 L546.052,100.946 Z M548.11,85.91 C548.11,86.7220041 548.669994,87.6599947 549.79,88.724 C550.910006,89.7880053 552.183993,90.32 553.612,90.32 C555.096007,90.32 556.397994,89.7250059 557.518,88.535 C558.638006,87.344994 559.198,85.9940076 559.198,84.482 L559.198,79.61 C559.198,78.1259926 558.631006,76.7960059 557.497,75.62 C556.362994,74.4439941 555.040008,73.856 553.528,73.856 C552.099993,73.856 550.840005,74.3809947 549.748,75.431 C548.655995,76.4810052 548.11,77.8739913 548.11,79.61 L548.11,85.91 Z M566.338,91.076 L566.338,60.71 C566.338,60.4579987 566.435999,60.2480008 566.632,60.08 C566.828001,59.9119992 567.065999,59.828 567.346,59.828 C567.654002,59.828 567.905999,59.9119992 568.102,60.08 C568.298001,60.2480008 568.396,60.4579987 568.396,60.71 L568.396,91.076 C568.396,91.3000011 568.291001,91.509999 568.081,91.706 C567.870999,91.902001 567.626001,92 567.346,92 C567.065999,92 566.828001,91.9090009 566.632,91.727 C566.435999,91.5449991 566.338,91.3280013 566.338,91.076 L566.338,91.076 Z M573.478,84.482 L573.478,79.61 C573.478,77.5379896 574.233992,75.7390076 575.746,74.213 C577.258008,72.6869924 579.063989,71.924 581.164,71.924 C583.23601,71.924 585.041992,72.6799924 586.582,74.192 C588.122008,75.7040076 588.892,77.5099895 588.892,79.61 L588.892,84.482 C588.892,86.5260102 588.115008,88.3319922 586.561,89.9 C585.006992,91.4680078 583.20801,92.252 581.164,92.252 C579.11999,92.252 577.328008,91.4750078 575.788,89.921 C574.247992,88.3669922 573.478,86.5540104 573.478,84.482 L573.478,84.482 Z M575.536,84.482 C575.536,85.9940076 576.088994,87.344994 577.195,88.535 C578.301006,89.7250059 579.623992,90.32 581.164,90.32 C582.704008,90.32 584.033994,89.7250059 585.154,88.535 C586.274006,87.344994 586.834,85.9940076 586.834,84.482 L586.834,79.61 C586.834,78.1259926 586.274006,76.7960059 585.154,75.62 C584.033994,74.4439941 582.704008,73.856 581.164,73.856 C579.623992,73.856 578.301006,74.4439941 577.195,75.62 C576.088994,76.7960059 575.536,78.1259926 575.536,79.61 L575.536,84.482 Z M591.412,72.89 C591.412,72.6099986 591.537999,72.372001 591.79,72.176 C592.042001,71.979999 592.321998,71.882 592.63,71.882 C593.078002,71.882 593.344,72.0639982 593.428,72.428 L599.35,88.598 L605.104,72.428 C605.300001,72.0639982 605.565998,71.882 605.902,71.882 C606.182001,71.882 606.447999,71.979999 606.7,72.176 C606.952001,72.372001 607.078,72.6099986 607.078,72.89 C607.078,73.0300007 607.064,73.1419996 607.036,73.226 L600.4,91.328 L599.518,93.68 C599.349999,94.1280022 599.042002,94.8769947 598.594,95.927 C598.145998,96.9770052 597.740002,97.7609974 597.376,98.279 C597.011998,98.7970026 596.564003,99.3849967 596.032,100.043 C595.499997,100.701003 594.933003,101.169999 594.331,101.45 C593.728997,101.730001 593.092003,101.87 592.42,101.87 C591.775997,101.87 591.454,101.548003 591.454,100.904 C591.454,100.259997 591.705997,99.938 592.21,99.938 C594.534012,99.938 596.563991,97.0680287 598.3,91.328 L591.496,73.226 C591.44,73.0579992 591.412,72.9460003 591.412,72.89 L591.412,72.89 Z M617.746,89.396 C617.746,89.1719989 617.822999,88.955001 617.977,88.745 C618.131001,88.5349989 618.305999,88.43 618.502,88.43 C618.670001,88.4019999 618.893999,88.4999989 619.174,88.724 L620.14,89.396 C620.476002,89.6200011 620.993996,89.8439989 621.694,90.068 C622.394003,90.2920011 623.177996,90.404 624.046,90.404 C625.614008,90.404 626.775996,90.103003 627.532,89.501 C628.288004,88.898997 628.666,88.1220048 628.666,87.17 C628.666,86.0499944 628.309004,85.1680032 627.595,84.524 C626.880996,83.8799968 626.013005,83.4110015 624.991,83.117 C623.968995,82.8229985 622.940005,82.5080017 621.904,82.172 C620.867995,81.8359983 619.993004,81.2900038 619.279,80.534 C618.564996,79.7779962 618.208,78.7560064 618.208,77.468 C618.208,76.0119927 618.746995,74.7240056 619.825,73.604 C620.903005,72.4839944 622.491989,71.924 624.592,71.924 C625.908007,71.924 627.132994,72.126998 628.267,72.533 C629.401006,72.939002 629.968,73.3659978 629.968,73.814 C629.968,74.0380011 629.870001,74.2759987 629.674,74.528 C629.477999,74.7800013 629.268001,74.906 629.044,74.906 C629.016,74.906 628.526005,74.7170019 627.574,74.339 C626.621995,73.9609981 625.642005,73.772 624.634,73.772 C623.121992,73.772 621.995004,74.1499962 621.253,74.906 C620.510996,75.6620038 620.14,76.5019954 620.14,77.426 C620.14,78.3780048 620.496996,79.1199973 621.211,79.652 C621.925004,80.1840027 622.799995,80.5899986 623.836,80.87 C624.872005,81.1500014 625.907995,81.4649982 626.944,81.815 C627.980005,82.1650017 628.854996,82.7669957 629.569,83.621 C630.283004,84.4750043 630.64,85.6159929 630.64,87.044 C630.64,88.6680081 630.066006,89.9419954 628.918,90.866 C627.769994,91.7900046 626.16001,92.252 624.088,92.252 C622.295991,92.252 620.791006,91.9370031 619.573,91.307 C618.354994,90.6769968 617.746,90.0400032 617.746,89.396 L617.746,89.396 Z M634.21,84.482 L634.21,79.694 C634.21,77.3979885 634.874993,75.5290072 636.205,74.087 C637.535007,72.6449928 639.501987,71.924 642.106,71.924 C643.702008,71.924 645.045995,72.2109971 646.138,72.785 C647.230005,73.3590029 647.776,73.9259972 647.776,74.486 C647.776,74.7380013 647.678001,74.9689989 647.482,75.179 C647.285999,75.389001 647.062001,75.494 646.81,75.494 C646.669999,75.494 646.425002,75.3610013 646.075,75.095 C645.724998,74.8289987 645.214003,74.5560014 644.542,74.276 C643.869997,73.9959986 643.072005,73.856 642.148,73.856 C640.271991,73.856 638.823005,74.3739948 637.801,75.41 C636.778995,76.4460052 636.268,77.8739909 636.268,79.694 L636.268,84.482 C636.268,86.3300092 636.771995,87.7649949 637.78,88.787 C638.788005,89.8090051 640.25799,90.32 642.19,90.32 C643.170005,90.32 644.009996,90.1800014 644.71,89.9 C645.410003,89.6199986 645.941998,89.3400014 646.306,89.06 C646.670002,88.7799986 646.935999,88.64 647.104,88.64 C647.356001,88.64 647.572999,88.7449989 647.755,88.955 C647.937001,89.165001 648.028,89.3959987 648.028,89.648 C648.028,90.2360029 647.461006,90.8169971 646.327,91.391 C645.192994,91.9650029 643.786008,92.252 642.106,92.252 C639.529987,92.252 637.570007,91.5380071 636.226,90.11 C634.881993,88.6819929 634.21,86.8060116 634.21,84.482 L634.21,84.482 Z M651.976,91.076 L651.976,73.016 C651.976,72.4559972 652.311997,72.176 652.984,72.176 C653.264001,72.176 653.501999,72.2529992 653.698,72.407 C653.894001,72.5610008 653.992,72.7639987 653.992,73.016 L653.992,75.158 C654.496003,74.2339954 655.244995,73.4640031 656.239,72.848 C657.233005,72.2319969 658.387993,71.924 659.704,71.924 L661.216,71.924 C661.468001,71.924 661.684999,72.0149991 661.867,72.197 C662.049001,72.3790009 662.14,72.6099986 662.14,72.89 C662.14,73.1700014 662.049001,73.4009991 661.867,73.583 C661.684999,73.7650009 661.468001,73.856 661.216,73.856 L659.704,73.856 C658.191992,73.856 656.869006,74.4229943 655.735,75.557 C654.600994,76.6910057 654.034,78.1679909 654.034,79.988 L654.034,91.076 C654.034,91.3000011 653.929001,91.509999 653.719,91.706 C653.508999,91.902001 653.264001,92 652.984,92 C652.703999,92 652.466001,91.9090009 652.27,91.727 C652.073999,91.5449991 651.976,91.3280013 651.976,91.076 L651.976,91.076 Z M664.786,64.364 C664.786,63.971998 664.939998,63.6290015 665.248,63.335 C665.556002,63.0409985 665.933998,62.894 666.382,62.894 C666.802002,62.894 667.165998,63.0409985 667.474,63.335 C667.782002,63.6290015 667.936,63.971998 667.936,64.364 C667.936,64.7840021 667.782002,65.1479985 667.474,65.456 C667.165998,65.7640015 666.802002,65.918 666.382,65.918 C665.933998,65.918 665.556002,65.7640015 665.248,65.456 C664.939998,65.1479985 664.786,64.7840021 664.786,64.364 L664.786,64.364 Z M665.374,91.076 L665.374,73.016 C665.374,72.4559972 665.709997,72.176 666.382,72.176 C667.082003,72.176 667.432,72.4559972 667.432,73.016 L667.432,91.076 C667.432,91.3000011 667.327001,91.509999 667.117,91.706 C666.906999,91.902001 666.662001,92 666.382,92 C666.101999,92 665.864001,91.9090009 665.668,91.727 C665.471999,91.5449991 665.374,91.3280013 665.374,91.076 L665.374,91.076 Z M672.976,100.946 L672.976,73.016 C672.976,72.4559972 673.311997,72.176 673.984,72.176 C674.264001,72.176 674.501999,72.2529992 674.698,72.407 C674.894001,72.5610008 674.992,72.7639987 674.992,73.016 L674.992,75.116 C676.196006,72.9879894 678.071987,71.924 680.62,71.924 C682.69201,71.924 684.469993,72.6729925 685.954,74.171 C687.438007,75.6690075 688.18,77.4819894 688.18,79.61 L688.18,84.482 C688.18,86.5260102 687.431007,88.3319922 685.933,89.9 C684.434993,91.4680078 682.69201,92.252 680.704,92.252 C679.471994,92.252 678.338005,91.9440031 677.302,91.328 C676.265995,90.7119969 675.510002,89.9560045 675.034,89.06 L675.034,100.946 C675.034,101.170001 674.929001,101.379999 674.719,101.576 C674.508999,101.772001 674.264001,101.87 673.984,101.87 C673.703999,101.87 673.466001,101.779001 673.27,101.597 C673.073999,101.414999 672.976,101.198001 672.976,100.946 L672.976,100.946 Z M675.034,85.91 C675.034,86.7220041 675.593994,87.6599947 676.714,88.724 C677.834006,89.7880053 679.107993,90.32 680.536,90.32 C682.020007,90.32 683.321994,89.7250059 684.442,88.535 C685.562006,87.344994 686.122,85.9940076 686.122,84.482 L686.122,79.61 C686.122,78.1259926 685.555006,76.7960059 684.421,75.62 C683.286994,74.4439941 681.964008,73.856 680.452,73.856 C679.023993,73.856 677.764005,74.3809947 676.672,75.431 C675.579995,76.4810052 675.034,77.8739913 675.034,79.61 L675.034,85.91 Z M692.842,85.994 L692.842,63.44 C692.842,63.1879987 692.946999,62.9780008 693.157,62.81 C693.367001,62.6419992 693.597999,62.558 693.85,62.558 C694.130001,62.558 694.374999,62.6419992 694.585,62.81 C694.795001,62.9780008 694.9,63.1879987 694.9,63.44 L694.9,72.176 L700.486,72.176 C700.710001,72.176 700.898999,72.2669991 701.053,72.449 C701.207001,72.6310009 701.284,72.8479987 701.284,73.1 C701.284,73.3240011 701.200001,73.5269991 701.032,73.709 C700.863999,73.8910009 700.682001,73.982 700.486,73.982 L694.9,73.982 L694.9,85.994 C694.9,87.4780074 695.221997,88.5279969 695.866,89.144 C696.510003,89.7600031 697.629992,90.068 699.226,90.068 L700.276,90.068 C700.556001,90.068 700.786999,90.1589991 700.969,90.341 C701.151001,90.5230009 701.242,90.7539986 701.242,91.034 C701.242,91.2860013 701.151001,91.509999 700.969,91.706 C700.786999,91.902001 700.556001,92 700.276,92 L699.226,92 C694.969979,92 692.842,89.99802 692.842,85.994 L692.842,85.994 Z M703.594,89.396 C703.594,89.1719989 703.670999,88.955001 703.825,88.745 C703.979001,88.5349989 704.153999,88.43 704.35,88.43 C704.518001,88.4019999 704.741999,88.4999989 705.022,88.724 L705.988,89.396 C706.324002,89.6200011 706.841996,89.8439989 707.542,90.068 C708.242003,90.2920011 709.025996,90.404 709.894,90.404 C711.462008,90.404 712.623996,90.103003 713.38,89.501 C714.136004,88.898997 714.514,88.1220048 714.514,87.17 C714.514,86.0499944 714.157004,85.1680032 713.443,84.524 C712.728996,83.8799968 711.861005,83.4110015 710.839,83.117 C709.816995,82.8229985 708.788005,82.5080017 707.752,82.172 C706.715995,81.8359983 705.841004,81.2900038 705.127,80.534 C704.412996,79.7779962 704.056,78.7560064 704.056,77.468 C704.056,76.0119927 704.594995,74.7240056 705.673,73.604 C706.751005,72.4839944 708.339989,71.924 710.44,71.924 C711.756007,71.924 712.980994,72.126998 714.115,72.533 C715.249006,72.939002 715.816,73.3659978 715.816,73.814 C715.816,74.0380011 715.718001,74.2759987 715.522,74.528 C715.325999,74.7800013 715.116001,74.906 714.892,74.906 C714.864,74.906 714.374005,74.7170019 713.422,74.339 C712.469995,73.9609981 711.490005,73.772 710.482,73.772 C708.969992,73.772 707.843004,74.1499962 707.101,74.906 C706.358996,75.6620038 705.988,76.5019954 705.988,77.426 C705.988,78.3780048 706.344996,79.1199973 707.059,79.652 C707.773004,80.1840027 708.647995,80.5899986 709.684,80.87 C710.720005,81.1500014 711.755995,81.4649982 712.792,81.815 C713.828005,82.1650017 714.702996,82.7669957 715.417,83.621 C716.131004,84.4750043 716.488,85.6159929 716.488,87.044 C716.488,88.6680081 715.914006,89.9419954 714.766,90.866 C713.617994,91.7900046 712.00801,92.252 709.936,92.252 C708.143991,92.252 706.639006,91.9370031 705.421,91.307 C704.202994,90.6769968 703.594,90.0400032 703.594,89.396 L703.594,89.396 Z" id="write-human-readable-copy" fill="#000000"></path>
            <path d="M20.1629509,38.1629509 L58.1629509,38.1629509 L58.1629509,74.1629509 L20.1629509,74.1629509 L20.1629509,38.1629509 Z M39.8415223,52.8296176 L50.0200938,66.1629509 L29.6629509,66.1629509 L39.8415223,52.8296176 Z M35.0915223,66.1629509 L44.5915223,66.1629509 L44.5915223,74.1629509 L35.0915223,74.1629509 L35.0915223,66.1629509 Z" id="Combined-Shape" fill="#4DE6D8" transform="translate(39.162951, 56.162951) rotate(45.000000) translate(-39.162951, -56.162951) "></path>
            <path d="M108.2,46.376 L108.2,21.16 C108.2,20.3919962 108.57333,19.7733357 109.32,19.304 C110.06667,18.8346643 111.05866,18.6 112.296,18.6 C113.320005,18.6 114.183996,18.8346643 114.888,19.304 C115.592004,19.7733357 115.944,20.3919962 115.944,21.16 L115.944,23.08 C116.62667,21.7146598 117.725326,20.5626714 119.24,19.624 C120.754674,18.6853286 122.514657,18.216 124.52,18.216 C127.464015,18.216 130.034656,19.4959872 132.232,22.056 C134.429344,24.6160128 135.528,27.666649 135.528,31.208 L135.528,46.376 C135.528,47.1866707 135.112004,47.8266643 134.28,48.296 C133.447996,48.7653357 132.477339,49 131.368,49 C130.301328,49 129.352004,48.7653357 128.52,48.296 C127.687996,47.8266643 127.272,47.1866707 127.272,46.376 L127.272,31.208 C127.272,29.7146592 126.717339,28.3813392 125.608,27.208 C124.498661,26.0346608 123.197341,25.448 121.704,25.448 C120.295993,25.448 119.069339,25.981328 118.024,27.048 C116.978661,28.114672 116.456,29.5013248 116.456,31.208 L116.456,46.376 C116.456,47.0160032 116.040004,47.6133306 115.208,48.168 C114.375996,48.7226694 113.405339,49 112.296,49 C111.143994,49 110.173337,48.733336 109.384,48.2 C108.594663,47.666664 108.2,47.0586701 108.2,46.376 L108.2,46.376 Z M140.52,36.456 L140.52,31.208 C140.52,27.7093158 141.88532,24.6693462 144.616,22.088 C147.34668,19.5066538 150.610648,18.216 154.408,18.216 C158.120019,18.216 161.362653,19.4959872 164.136,22.056 C166.909347,24.6160128 168.296,27.666649 168.296,31.208 L168.296,36.456 C168.296,39.9120173 166.909347,42.9626534 164.136,45.608 C161.362653,48.2533466 158.120019,49.576 154.408,49.576 C150.695981,49.576 147.453347,48.2533466 144.68,45.608 C141.906653,42.9626534 140.52,39.9120173 140.52,36.456 L140.52,36.456 Z M148.776,36.456 C148.776,37.9920077 149.330661,39.3573274 150.44,40.552 C151.549339,41.7466726 152.871992,42.344 154.408,42.344 C155.901341,42.344 157.213328,41.7466726 158.344,40.552 C159.474672,39.3573274 160.04,37.9920077 160.04,36.456 L160.04,31.208 C160.04,29.7573261 159.474672,28.4346726 158.344,27.24 C157.213328,26.0453274 155.901341,25.448 154.408,25.448 C152.871992,25.448 151.549339,26.0346608 150.44,27.208 C149.330661,28.3813392 148.776,29.7146592 148.776,31.208 L148.776,36.456 Z M172.456,36.456 L172.456,31.208 C172.456,27.666649 173.575989,24.6160128 175.816,22.056 C178.056011,19.4959872 180.733318,18.216 183.848,18.216 C185.725343,18.216 187.37866,18.6853286 188.808,19.624 C190.23734,20.5626714 191.335996,21.7146598 192.104,23.08 L192.104,3.432 C192.104,2.66399616 192.498663,2.04533568 193.288,1.576 C194.077337,1.10666432 195.069327,0.872 196.264,0.872 C197.458673,0.872 198.439996,1.10666432 199.208,1.576 C199.976004,2.04533568 200.36,2.66399616 200.36,3.432 L200.36,46.376 C200.36,47.0586701 199.965337,47.666664 199.176,48.2 C198.386663,48.733336 197.416006,49 196.264,49 C195.282662,49 194.41867,48.7226694 193.672,48.168 C192.92533,47.6133306 192.552,47.0160032 192.552,46.376 L192.552,44.52 C191.86933,45.8853402 190.706675,47.0693283 189.064,48.072 C187.421325,49.0746717 185.618676,49.576 183.656,49.576 C180.711985,49.576 178.109345,48.2533466 175.848,45.608 C173.586655,42.9626534 172.456,39.9120173 172.456,36.456 L172.456,36.456 Z M180.712,36.456 C180.712,37.9493408 181.266661,39.3039939 182.376,40.52 C183.485339,41.7360061 184.786659,42.344 186.28,42.344 C187.773341,42.344 189.117327,41.7573392 190.312,40.584 C191.506673,39.4106608 192.104,38.4186707 192.104,37.608 L192.104,31.208 C192.104,29.5013248 191.517339,28.114672 190.344,27.048 C189.170661,25.981328 187.837341,25.448 186.344,25.448 C184.807992,25.448 183.485339,26.0346608 182.376,27.208 C181.266661,28.3813392 180.712,29.7146592 180.712,31.208 L180.712,36.456 Z M205.672,36.456 L205.672,31.016 C205.672,27.5173158 207.03732,24.5093459 209.768,21.992 C212.49868,19.4746541 215.805314,18.216 219.688,18.216 C223.314685,18.216 226.418654,19.3573219 229,21.64 C231.581346,23.9226781 232.872,26.7919827 232.872,30.248 C232.872,31.5280064 232.712002,32.5839958 232.392,33.416 C232.071998,34.2480042 231.581337,34.834665 230.92,35.176 C230.258663,35.517335 229.650669,35.7306662 229.096,35.816 C228.541331,35.9013338 227.816004,35.944 226.92,35.944 L213.928,35.944 L213.928,36.904 C213.928,38.7386758 214.61066,40.2213277 215.976,41.352 C217.34134,42.4826723 219.154655,43.048 221.416,43.048 C223.037341,43.048 224.637325,42.6426707 226.216,41.832 C227.794675,41.0213293 228.818664,40.616 229.288,40.616 C230.184004,40.616 230.930664,41.0319958 231.528,41.864 C232.125336,42.6960042 232.424,43.4959962 232.424,44.264 C232.424,45.4586726 231.346677,46.6426608 229.192,47.816 C227.037323,48.9893392 224.360016,49.576 221.16,49.576 C216.594644,49.576 212.872014,48.3706787 209.992,45.96 C207.111986,43.5493213 205.672,40.381353 205.672,36.456 L205.672,36.456 Z M213.928,31.08 L223.272,31.08 C223.95467,31.08 224.434665,30.9626678 224.712,30.728 C224.989335,30.4933322 225.128,30.0346701 225.128,29.352 C225.128,27.8586592 224.584005,26.6426714 223.496,25.704 C222.407995,24.7653286 221.074675,24.296 219.496,24.296 C218.002659,24.296 216.701339,24.7546621 215.592,25.672 C214.482661,26.5893379 213.928,27.7946592 213.928,29.288 L213.928,31.08 Z M236.904,33.64 C236.904,32.6586618 237.138664,31.8373366 237.608,31.176 C238.077336,30.5146634 238.695996,30.184 239.464,30.184 L256.104,30.184 C256.78667,30.184 257.405331,30.5253299 257.96,31.208 C258.514669,31.8906701 258.792,32.7013286 258.792,33.64 C258.792,34.6213382 258.525336,35.4319968 257.992,36.072 C257.458664,36.7120032 256.829337,37.032 256.104,37.032 L239.464,37.032 C238.695996,37.032 238.077336,36.7226698 237.608,36.104 C237.138664,35.4853302 236.904,34.6640051 236.904,33.64 L236.904,33.64 Z M263.144,36.456 L263.144,31.208 C263.144,27.666649 264.263989,24.6160128 266.504,22.056 C268.744011,19.4959872 271.421318,18.216 274.536,18.216 C276.413343,18.216 278.06666,18.6853286 279.496,19.624 C280.92534,20.5626714 282.023996,21.7146598 282.792,23.08 L282.792,3.432 C282.792,2.66399616 283.186663,2.04533568 283.976,1.576 C284.765337,1.10666432 285.757327,0.872 286.952,0.872 C288.146673,0.872 289.127996,1.10666432 289.896,1.576 C290.664004,2.04533568 291.048,2.66399616 291.048,3.432 L291.048,46.376 C291.048,47.0586701 290.653337,47.666664 289.864,48.2 C289.074663,48.733336 288.104006,49 286.952,49 C285.970662,49 285.10667,48.7226694 284.36,48.168 C283.61333,47.6133306 283.24,47.0160032 283.24,46.376 L283.24,44.52 C282.55733,45.8853402 281.394675,47.0693283 279.752,48.072 C278.109325,49.0746717 276.306676,49.576 274.344,49.576 C271.399985,49.576 268.797345,48.2533466 266.536,45.608 C264.274655,42.9626534 263.144,39.9120173 263.144,36.456 L263.144,36.456 Z M271.4,36.456 C271.4,37.9493408 271.954661,39.3039939 273.064,40.52 C274.173339,41.7360061 275.474659,42.344 276.968,42.344 C278.461341,42.344 279.805327,41.7573392 281,40.584 C282.194673,39.4106608 282.792,38.4186707 282.792,37.608 L282.792,31.208 C282.792,29.5013248 282.205339,28.114672 281.032,27.048 C279.858661,25.981328 278.525341,25.448 277.032,25.448 C275.495992,25.448 274.173339,26.0346608 273.064,27.208 C271.954661,28.3813392 271.4,29.7146592 271.4,31.208 L271.4,36.456 Z M296.36,36.456 L296.36,31.016 C296.36,27.5173158 297.72532,24.5093459 300.456,21.992 C303.18668,19.4746541 306.493314,18.216 310.376,18.216 C314.002685,18.216 317.106654,19.3573219 319.688,21.64 C322.269346,23.9226781 323.56,26.7919827 323.56,30.248 C323.56,31.5280064 323.400002,32.5839958 323.08,33.416 C322.759998,34.2480042 322.269337,34.834665 321.608,35.176 C320.946663,35.517335 320.338669,35.7306662 319.784,35.816 C319.229331,35.9013338 318.504004,35.944 317.608,35.944 L304.616,35.944 L304.616,36.904 C304.616,38.7386758 305.29866,40.2213277 306.664,41.352 C308.02934,42.4826723 309.842655,43.048 312.104,43.048 C313.725341,43.048 315.325325,42.6426707 316.904,41.832 C318.482675,41.0213293 319.506664,40.616 319.976,40.616 C320.872004,40.616 321.618664,41.0319958 322.216,41.864 C322.813336,42.6960042 323.112,43.4959962 323.112,44.264 C323.112,45.4586726 322.034677,46.6426608 319.88,47.816 C317.725323,48.9893392 315.048016,49.576 311.848,49.576 C307.282644,49.576 303.560014,48.3706787 300.68,45.96 C297.799986,43.5493213 296.36,40.381353 296.36,36.456 L296.36,36.456 Z M304.616,31.08 L313.96,31.08 C314.64267,31.08 315.122665,30.9626678 315.4,30.728 C315.677335,30.4933322 315.816,30.0346701 315.816,29.352 C315.816,27.8586592 315.272005,26.6426714 314.184,25.704 C313.095995,24.7653286 311.762675,24.296 310.184,24.296 C308.690659,24.296 307.389339,24.7546621 306.28,25.672 C305.170661,26.5893379 304.616,27.7946592 304.616,29.288 L304.616,31.08 Z M328.552,60.52 L328.552,21.16 C328.552,20.3919962 328.92533,19.7733357 329.672,19.304 C330.41867,18.8346643 331.346661,18.6 332.456,18.6 C333.565339,18.6 334.482663,18.8346643 335.208,19.304 C335.933337,19.7733357 336.296,20.3919962 336.296,21.16 L336.296,23.08 C337.106671,21.7146598 338.269326,20.5626714 339.784,19.624 C341.298674,18.6853286 343.01599,18.216 344.936,18.216 C348.136016,18.216 350.845322,19.4853206 353.064,22.024 C355.282678,24.5626794 356.392,27.6239821 356.392,31.208 L356.392,36.456 C356.392,39.9120173 355.261345,42.9626534 353,45.608 C350.738655,48.2533466 348.136015,49.576 345.192,49.576 C343.357324,49.576 341.661341,49.0746717 340.104,48.072 C338.546659,47.0693283 337.448003,45.8853402 336.808,44.52 L336.808,60.52 C336.808,61.2026701 336.392004,61.810664 335.56,62.344 C334.727996,62.877336 333.736006,63.144 332.584,63.144 C331.431994,63.144 330.472004,62.877336 329.704,62.344 C328.935996,61.810664 328.552,61.2026701 328.552,60.52 L328.552,60.52 Z M336.808,37.608 C336.808,38.4613376 337.383994,39.4639942 338.536,40.616 C339.688006,41.7680058 340.989326,42.344 342.44,42.344 C343.933341,42.344 345.255994,41.7360061 346.408,40.52 C347.560006,39.3039939 348.136,37.9493408 348.136,36.456 L348.136,31.208 C348.136,29.7146592 347.560006,28.3813392 346.408,27.208 C345.255994,26.0346608 343.890675,25.448 342.312,25.448 C340.861326,25.448 339.581339,25.981328 338.472,27.048 C337.362661,28.114672 336.808,29.5013248 336.808,31.208 L336.808,37.608 Z M362.28,46.376 L362.28,3.432 C362.28,2.66399616 362.65333,2.04533568 363.4,1.576 C364.14667,1.10666432 365.13866,0.872 366.376,0.872 C367.528006,0.872 368.509329,1.10666432 369.32,1.576 C370.130671,2.04533568 370.536,2.66399616 370.536,3.432 L370.536,46.376 C370.536,47.0160032 370.120004,47.6133306 369.288,48.168 C368.455996,48.7226694 367.485339,49 366.376,49 C365.223994,49 364.253337,48.733336 363.464,48.2 C362.674663,47.666664 362.28,47.0586701 362.28,46.376 L362.28,46.376 Z M376.36,36.456 L376.36,31.208 C376.36,27.7093158 377.72532,24.6693462 380.456,22.088 C383.18668,19.5066538 386.450648,18.216 390.248,18.216 C393.960019,18.216 397.202653,19.4959872 399.976,22.056 C402.749347,24.6160128 404.136,27.666649 404.136,31.208 L404.136,36.456 C404.136,39.9120173 402.749347,42.9626534 399.976,45.608 C397.202653,48.2533466 393.960019,49.576 390.248,49.576 C386.535981,49.576 383.293347,48.2533466 380.52,45.608 C377.746653,42.9626534 376.36,39.9120173 376.36,36.456 L376.36,36.456 Z M384.616,36.456 C384.616,37.9920077 385.170661,39.3573274 386.28,40.552 C387.389339,41.7466726 388.711992,42.344 390.248,42.344 C391.741341,42.344 393.053328,41.7466726 394.184,40.552 C395.314672,39.3573274 395.88,37.9920077 395.88,36.456 L395.88,31.208 C395.88,29.7573261 395.314672,28.4346726 394.184,27.24 C393.053328,26.0453274 391.741341,25.448 390.248,25.448 C388.711992,25.448 387.389339,26.0346608 386.28,27.208 C385.170661,28.3813392 384.616,29.7146592 384.616,31.208 L384.616,36.456 Z M406.312,59.624 C406.312,57.3199885 407.015993,56.168 408.424,56.168 C410.429343,56.168 412.402657,55.4426739 414.344,53.992 C416.285343,52.5413261 417.362666,50.1306835 417.576,46.76 L406.568,23.208 C406.397332,22.7813312 406.312,22.4186682 406.312,22.12 C406.312,21.0959949 406.941327,20.1786707 408.2,19.368 C409.458673,18.5573293 410.663994,18.152 411.816,18.152 C413.096006,18.152 413.885332,18.6213286 414.184,19.56 L421.864,38.696 L428.072,19.56 C428.370668,18.6213286 429.095994,18.152 430.248,18.152 C431.357339,18.152 432.573327,18.5679958 433.896,19.4 C435.218673,20.2320042 435.88,21.181328 435.88,22.248 C435.88,22.589335 435.816001,22.9093318 435.688,23.208 L426.344,47.08 L425.256,49.896 C424.743997,51.3466739 424.370668,52.3493306 424.136,52.904 C423.901332,53.4586694 423.496003,54.3226608 422.92,55.496 C422.343997,56.6693392 421.832002,57.522664 421.384,58.056 C420.935998,58.589336 420.306671,59.2506627 419.496,60.04 C418.685329,60.8293373 417.864004,61.4053315 417.032,61.768 C416.199996,62.1306685 415.186673,62.4506653 413.992,62.728 C412.797327,63.0053347 411.496007,63.144 410.088,63.144 C408.85066,63.144 407.912003,62.9093357 407.272,62.44 C406.631997,61.9706643 406.312,61.032007 406.312,59.624 L406.312,59.624 Z M438.12,33.64 C438.12,32.6586618 438.354664,31.8373366 438.824,31.176 C439.293336,30.5146634 439.911996,30.184 440.68,30.184 L457.32,30.184 C458.00267,30.184 458.621331,30.5253299 459.176,31.208 C459.730669,31.8906701 460.008,32.7013286 460.008,33.64 C460.008,34.6213382 459.741336,35.4319968 459.208,36.072 C458.674664,36.7120032 458.045337,37.032 457.32,37.032 L440.68,37.032 C439.911996,37.032 439.293336,36.7226698 438.824,36.104 C438.354664,35.4853302 438.12,34.6640051 438.12,33.64 L438.12,33.64 Z M464.296,36.456 L464.296,31.016 C464.296,27.5173158 465.66132,24.5093459 468.392,21.992 C471.12268,19.4746541 474.429314,18.216 478.312,18.216 C481.938685,18.216 485.042654,19.3573219 487.624,21.64 C490.205346,23.9226781 491.496,26.7919827 491.496,30.248 C491.496,31.5280064 491.336002,32.5839958 491.016,33.416 C490.695998,34.2480042 490.205337,34.834665 489.544,35.176 C488.882663,35.517335 488.274669,35.7306662 487.72,35.816 C487.165331,35.9013338 486.440004,35.944 485.544,35.944 L472.552,35.944 L472.552,36.904 C472.552,38.7386758 473.23466,40.2213277 474.6,41.352 C475.96534,42.4826723 477.778655,43.048 480.04,43.048 C481.661341,43.048 483.261325,42.6426707 484.84,41.832 C486.418675,41.0213293 487.442664,40.616 487.912,40.616 C488.808004,40.616 489.554664,41.0319958 490.152,41.864 C490.749336,42.6960042 491.048,43.4959962 491.048,44.264 C491.048,45.4586726 489.970677,46.6426608 487.816,47.816 C485.661323,48.9893392 482.984016,49.576 479.784,49.576 C475.218644,49.576 471.496014,48.3706787 468.616,45.96 C465.735986,43.5493213 464.296,40.381353 464.296,36.456 L464.296,36.456 Z M472.552,31.08 L481.896,31.08 C482.57867,31.08 483.058665,30.9626678 483.336,30.728 C483.613335,30.4933322 483.752,30.0346701 483.752,29.352 C483.752,27.8586592 483.208005,26.6426714 482.12,25.704 C481.031995,24.7653286 479.698675,24.296 478.12,24.296 C476.626659,24.296 475.325339,24.7546621 474.216,25.672 C473.106661,26.5893379 472.552,27.7946592 472.552,29.288 L472.552,31.08 Z M494.696,44.072 C494.696,43.3039962 494.973331,42.5040042 495.528,41.672 C496.082669,40.8399958 496.722663,40.424 497.448,40.424 C497.917336,40.424 498.503996,40.6586643 499.208,41.128 C499.912004,41.5973357 500.839994,42.0773309 501.992,42.568 C503.144006,43.0586691 504.509325,43.304 506.088,43.304 C509.202682,43.304 510.76,42.3866758 510.76,40.552 C510.76,39.5279949 510.237339,38.7173363 509.192,38.12 C508.146661,37.5226637 506.888007,37.0320019 505.416,36.648 C503.943993,36.2639981 502.461341,35.805336 500.968,35.272 C499.474659,34.738664 498.205339,33.842673 497.16,32.584 C496.114661,31.325327 495.592,29.7146765 495.592,27.752 C495.592,25.1493203 496.509324,22.9093427 498.344,21.032 C500.178676,19.1546573 503.07998,18.216 507.048,18.216 C509.693347,18.216 512.050656,18.6213293 514.12,19.432 C516.189344,20.2426707 517.224,21.2239942 517.224,22.376 C517.224,23.101337 516.936003,23.9439952 516.36,24.904 C515.783997,25.8640048 515.069338,26.344 514.216,26.344 C513.874665,26.344 512.946674,26.0346698 511.432,25.416 C509.917326,24.7973302 508.498673,24.488 507.176,24.488 C505.725326,24.488 504.616004,24.7866637 503.848,25.384 C503.079996,25.9813363 502.696,26.642663 502.696,27.368 C502.696,28.093337 503.079996,28.6906643 503.848,29.16 C504.616004,29.6293357 505.565328,29.9919987 506.696,30.248 C507.826672,30.5040013 509.053327,30.8559978 510.376,31.304 C511.698673,31.7520022 512.925328,32.2746637 514.056,32.872 C515.186672,33.4693363 516.135996,34.397327 516.904,35.656 C517.672004,36.914673 518.056,38.439991 518.056,40.232 C518.056,43.1333478 517.021344,45.4159917 514.952,47.08 C512.882656,48.7440083 509.992019,49.576 506.28,49.576 C503.079984,49.576 500.349345,49.0213389 498.088,47.912 C495.826655,46.8026611 494.696,45.5226739 494.696,44.072 L494.696,44.072 Z M521.192,44.072 C521.192,43.3039962 521.469331,42.5040042 522.024,41.672 C522.578669,40.8399958 523.218663,40.424 523.944,40.424 C524.413336,40.424 524.999996,40.6586643 525.704,41.128 C526.408004,41.5973357 527.335994,42.0773309 528.488,42.568 C529.640006,43.0586691 531.005325,43.304 532.584,43.304 C535.698682,43.304 537.256,42.3866758 537.256,40.552 C537.256,39.5279949 536.733339,38.7173363 535.688,38.12 C534.642661,37.5226637 533.384007,37.0320019 531.912,36.648 C530.439993,36.2639981 528.957341,35.805336 527.464,35.272 C525.970659,34.738664 524.701339,33.842673 523.656,32.584 C522.610661,31.325327 522.088,29.7146765 522.088,27.752 C522.088,25.1493203 523.005324,22.9093427 524.84,21.032 C526.674676,19.1546573 529.57598,18.216 533.544,18.216 C536.189347,18.216 538.546656,18.6213293 540.616,19.432 C542.685344,20.2426707 543.72,21.2239942 543.72,22.376 C543.72,23.101337 543.432003,23.9439952 542.856,24.904 C542.279997,25.8640048 541.565338,26.344 540.712,26.344 C540.370665,26.344 539.442674,26.0346698 537.928,25.416 C536.413326,24.7973302 534.994673,24.488 533.672,24.488 C532.221326,24.488 531.112004,24.7866637 530.344,25.384 C529.575996,25.9813363 529.192,26.642663 529.192,27.368 C529.192,28.093337 529.575996,28.6906643 530.344,29.16 C531.112004,29.6293357 532.061328,29.9919987 533.192,30.248 C534.322672,30.5040013 535.549327,30.8559978 536.872,31.304 C538.194673,31.7520022 539.421328,32.2746637 540.552,32.872 C541.682672,33.4693363 542.631996,34.397327 543.4,35.656 C544.168004,36.914673 544.552,38.439991 544.552,40.232 C544.552,43.1333478 543.517344,45.4159917 541.448,47.08 C539.378656,48.7440083 536.488019,49.576 532.776,49.576 C529.575984,49.576 526.845345,49.0213389 524.584,47.912 C522.322655,46.8026611 521.192,45.5226739 521.192,44.072 L521.192,44.072 Z M548.264,36.456 L548.264,31.016 C548.264,27.5173158 549.62932,24.5093459 552.36,21.992 C555.09068,19.4746541 558.397314,18.216 562.28,18.216 C565.906685,18.216 569.010654,19.3573219 571.592,21.64 C574.173346,23.9226781 575.464,26.7919827 575.464,30.248 C575.464,31.5280064 575.304002,32.5839958 574.984,33.416 C574.663998,34.2480042 574.173337,34.834665 573.512,35.176 C572.850663,35.517335 572.242669,35.7306662 571.688,35.816 C571.133331,35.9013338 570.408004,35.944 569.512,35.944 L556.52,35.944 L556.52,36.904 C556.52,38.7386758 557.20266,40.2213277 558.568,41.352 C559.93334,42.4826723 561.746655,43.048 564.008,43.048 C565.629341,43.048 567.229325,42.6426707 568.808,41.832 C570.386675,41.0213293 571.410664,40.616 571.88,40.616 C572.776004,40.616 573.522664,41.0319958 574.12,41.864 C574.717336,42.6960042 575.016,43.4959962 575.016,44.264 C575.016,45.4586726 573.938677,46.6426608 571.784,47.816 C569.629323,48.9893392 566.952016,49.576 563.752,49.576 C559.186644,49.576 555.464014,48.3706787 552.584,45.96 C549.703986,43.5493213 548.264,40.381353 548.264,36.456 L548.264,36.456 Z M556.52,31.08 L565.864,31.08 C566.54667,31.08 567.026665,30.9626678 567.304,30.728 C567.581335,30.4933322 567.72,30.0346701 567.72,29.352 C567.72,27.8586592 567.176005,26.6426714 566.088,25.704 C564.999995,24.7653286 563.666675,24.296 562.088,24.296 C560.594659,24.296 559.293339,24.7546621 558.184,25.672 C557.074661,26.5893379 556.52,27.7946592 556.52,29.288 L556.52,31.08 Z M580.392,46.376 L580.392,21.16 C580.392,20.3919962 580.76533,19.7733357 581.512,19.304 C582.25867,18.8346643 583.25066,18.6 584.488,18.6 C585.512005,18.6 586.375996,18.8346643 587.08,19.304 C587.784004,19.7733357 588.136,20.3919962 588.136,21.16 L588.136,23.08 C588.81867,21.7146598 589.917326,20.5626714 591.432,19.624 C592.946674,18.6853286 594.706657,18.216 596.712,18.216 C599.656015,18.216 602.226656,19.4959872 604.424,22.056 C606.621344,24.6160128 607.72,27.666649 607.72,31.208 L607.72,46.376 C607.72,47.1866707 607.304004,47.8266643 606.472,48.296 C605.639996,48.7653357 604.669339,49 603.56,49 C602.493328,49 601.544004,48.7653357 600.712,48.296 C599.879996,47.8266643 599.464,47.1866707 599.464,46.376 L599.464,31.208 C599.464,29.7146592 598.909339,28.3813392 597.8,27.208 C596.690661,26.0346608 595.389341,25.448 593.896,25.448 C592.487993,25.448 591.261339,25.981328 590.216,27.048 C589.170661,28.114672 588.648,29.5013248 588.648,31.208 L588.648,46.376 C588.648,47.0160032 588.232004,47.6133306 587.4,48.168 C586.567996,48.7226694 585.597339,49 584.488,49 C583.335994,49 582.365337,48.733336 581.576,48.2 C580.786663,47.666664 580.392,47.0586701 580.392,46.376 L580.392,46.376 Z M613.8,38.632 L613.8,7.592 C613.8,6.86666304 614.226662,6.25866912 615.08,5.768 C615.933338,5.27733088 616.871995,5.032 617.896,5.032 C619.005339,5.032 619.975996,5.27733088 620.808,5.768 C621.640004,6.25866912 622.056,6.86666304 622.056,7.592 L622.056,18.6 L629.608,18.6 C630.248003,18.6 630.759998,18.8986637 631.144,19.496 C631.528002,20.0933363 631.72,20.7973293 631.72,21.608 C631.72,22.4186707 631.528002,23.1226637 631.144,23.72 C630.759998,24.3173363 630.248003,24.616 629.608,24.616 L622.056,24.616 L622.056,38.632 C622.056,39.8693395 622.322664,40.7439974 622.856,41.256 C623.389336,41.7680026 624.317327,42.024 625.64,42.024 L628.136,42.024 C629.245339,42.024 630.10933,42.3653299 630.728,43.048 C631.34667,43.7306701 631.656,44.5413286 631.656,45.48 C631.656,46.4613382 631.34667,47.2933299 630.728,47.976 C630.10933,48.6586701 629.245339,49 628.136,49 L625.64,49 C617.746627,49 613.8,45.5440346 613.8,38.632 L613.8,38.632 Z M635.624,7.784 C635.624,6.67466112 636.061329,5.72533728 636.936,4.936 C637.810671,4.14666272 638.887994,3.752 640.168,3.752 C641.40534,3.752 642.461329,4.14666272 643.336,4.936 C644.210671,5.72533728 644.648,6.67466112 644.648,7.784 C644.648,8.850672 644.210671,9.78932928 643.336,10.6 C642.461329,11.4106707 641.40534,11.816 640.168,11.816 C638.887994,11.816 637.810671,11.4106707 636.936,10.6 C636.061329,9.78932928 635.624,8.850672 635.624,7.784 L635.624,7.784 Z M636.072,46.376 L636.072,21.16 C636.072,20.3919962 636.455996,19.7733357 637.224,19.304 C637.992004,18.8346643 638.973327,18.6 640.168,18.6 C641.362673,18.6 642.354663,18.8346643 643.144,19.304 C643.933337,19.7733357 644.328,20.3919962 644.328,21.16 L644.328,46.376 C644.328,47.0160032 643.912004,47.6133306 643.08,48.168 C642.247996,48.7226694 641.277339,49 640.168,49 C639.015994,49 638.045337,48.733336 637.256,48.2 C636.466663,47.666664 636.072,47.0586701 636.072,46.376 L636.072,46.376 Z M648.936,41.064 C648.936,37.6079827 650.215987,35.176007 652.776,33.768 C655.336013,32.359993 659.026643,31.656 663.848,31.656 L666.472,31.656 L666.472,30.824 C666.472,29.2453254 666.013338,27.8693392 665.096,26.696 C664.178662,25.5226608 662.76001,24.936 660.84,24.936 C658.91999,24.936 657.27734,25.2666634 655.912,25.928 C654.54666,26.5893366 653.757334,26.92 653.544,26.92 C652.690662,26.92 652.008003,26.4933376 651.496,25.64 C650.983997,24.7866624 650.728,23.8480051 650.728,22.824 C650.728,21.5866605 651.826656,20.5093379 654.024,19.592 C656.221344,18.6746621 658.535988,18.216 660.968,18.216 C665.61869,18.216 669.074655,19.3999882 671.336,21.768 C673.597345,24.1360118 674.728,27.1119821 674.728,30.696 L674.728,46.376 C674.728,47.101337 674.344004,47.7199974 673.576,48.232 C672.807996,48.7440026 671.848006,49 670.696,49 C669.629328,49 668.744004,48.7440026 668.04,48.232 C667.335996,47.7199974 666.984,47.101337 666.984,46.376 L666.984,44.52 C664.039985,47.8906835 660.797351,49.576 657.256,49.576 C654.823988,49.576 652.829341,48.8506739 651.272,47.4 C649.714659,45.9493261 648.936,43.8373472 648.936,41.064 L648.936,41.064 Z M657.192,39.976 C657.192,41.1280058 657.50133,41.9919971 658.12,42.568 C658.73867,43.1440029 659.559995,43.432 660.584,43.432 C661.94934,43.432 663.271994,42.7920064 664.552,41.512 C665.832006,40.2319936 666.472,38.8240077 666.472,37.288 L666.472,35.944 L665.512,35.944 C662.90932,35.944 660.872007,36.210664 659.4,36.744 C657.927993,37.277336 657.192,38.3546586 657.192,39.976 L657.192,39.976 Z M681.448,46.376 L681.448,3.432 C681.448,2.66399616 681.82133,2.04533568 682.568,1.576 C683.31467,1.10666432 684.30666,0.872 685.544,0.872 C686.696006,0.872 687.677329,1.10666432 688.488,1.576 C689.298671,2.04533568 689.704,2.66399616 689.704,3.432 L689.704,46.376 C689.704,47.0160032 689.288004,47.6133306 688.456,48.168 C687.623996,48.7226694 686.653339,49 685.544,49 C684.391994,49 683.421337,48.733336 682.632,48.2 C681.842663,47.666664 681.448,47.0586701 681.448,46.376 L681.448,46.376 Z M694.952,44.072 C694.952,43.3039962 695.229331,42.5040042 695.784,41.672 C696.338669,40.8399958 696.978663,40.424 697.704,40.424 C698.173336,40.424 698.759996,40.6586643 699.464,41.128 C700.168004,41.5973357 701.095994,42.0773309 702.248,42.568 C703.400006,43.0586691 704.765325,43.304 706.344,43.304 C709.458682,43.304 711.016,42.3866758 711.016,40.552 C711.016,39.5279949 710.493339,38.7173363 709.448,38.12 C708.402661,37.5226637 707.144007,37.0320019 705.672,36.648 C704.199993,36.2639981 702.717341,35.805336 701.224,35.272 C699.730659,34.738664 698.461339,33.842673 697.416,32.584 C696.370661,31.325327 695.848,29.7146765 695.848,27.752 C695.848,25.1493203 696.765324,22.9093427 698.6,21.032 C700.434676,19.1546573 703.33598,18.216 707.304,18.216 C709.949347,18.216 712.306656,18.6213293 714.376,19.432 C716.445344,20.2426707 717.48,21.2239942 717.48,22.376 C717.48,23.101337 717.192003,23.9439952 716.616,24.904 C716.039997,25.8640048 715.325338,26.344 714.472,26.344 C714.130665,26.344 713.202674,26.0346698 711.688,25.416 C710.173326,24.7973302 708.754673,24.488 707.432,24.488 C705.981326,24.488 704.872004,24.7866637 704.104,25.384 C703.335996,25.9813363 702.952,26.642663 702.952,27.368 C702.952,28.093337 703.335996,28.6906643 704.104,29.16 C704.872004,29.6293357 705.821328,29.9919987 706.952,30.248 C708.082672,30.5040013 709.309327,30.8559978 710.632,31.304 C711.954673,31.7520022 713.181328,32.2746637 714.312,32.872 C715.442672,33.4693363 716.391996,34.397327 717.16,35.656 C717.928004,36.914673 718.312,38.439991 718.312,40.232 C718.312,43.1333478 717.277344,45.4159917 715.208,47.08 C713.138656,48.7440083 710.248019,49.576 706.536,49.576 C703.335984,49.576 700.605345,49.0213389 698.344,47.912 C696.082655,46.8026611 694.952,45.5226739 694.952,44.072 L694.952,44.072 Z" id="node-deploy-essentia-copy" fill="#4EE6D7"></path>
        </g>
    </g>
</svg>